<?xml version="1.0" standalone="no"?>
<!DOCTYPE svg PUBLIC "-//W3C//DTD SVG 20010904//EN"
 "http://www.w3.org/TR/2001/REC-SVG-20010904/DTD/svg10.dtd">
<svg version="1.0" xmlns="http://www.w3.org/2000/svg"
 width="4096.000000pt" height="2304.000000pt" viewBox="0 0 4096.000000 2304.000000"
 preserveAspectRatio="xMidYMid meet">

<g transform="translate(0.000000,2304.000000) scale(0.100000,-0.100000)"
fill="#000000" stroke="none">
<path d="M19470 21423 c-66 -7 -235 -45 -310 -70 -156 -52 -340 -163 -443
-266 -95 -94 -183 -232 -223 -347 -27 -78 -25 -266 5 -416 23 -121 81 -355
104 -419 14 -38 14 -35 15 87 1 147 16 197 74 241 52 40 108 56 236 67 220 19
317 31 397 50 44 11 141 33 215 50 74 17 187 42 250 57 93 21 141 27 250 27
123 1 142 -1 218 -27 51 -18 102 -44 133 -69 50 -39 50 -40 44 -81 -4 -23 -16
-63 -27 -88 -17 -42 -18 -54 -8 -125 11 -87 18 -129 24 -159 3 -11 8 -47 11
-80 4 -33 13 -94 22 -135 8 -41 15 -97 15 -125 0 -48 -34 -188 -55 -229 -5
-12 -14 -29 -19 -38 -4 -10 -8 -39 -8 -64 0 -104 -51 -183 -132 -205 -36 -9
-67 -35 -178 -148 -237 -238 -453 -357 -715 -392 -76 -10 -143 -5 -230 17 -33
8 85 -66 163 -102 52 -24 72 -39 72 -52 0 -17 11 -20 98 -25 53 -4 149 -7 212
-7 141 0 351 -26 406 -50 36 -15 45 -26 62 -71 11 -30 25 -93 32 -141 14 -93
16 -95 66 -78 l30 10 -17 118 c-9 64 -19 164 -23 221 -3 58 -8 107 -11 109 -3
3 -42 -4 -87 -16 -160 -41 -326 -64 -314 -43 4 6 12 11 18 11 18 0 88 33 88
41 0 4 14 10 30 14 17 4 28 11 24 16 -3 5 0 9 6 9 34 0 330 261 330 290 0 6 8
19 18 30 9 11 17 24 16 28 0 4 8 14 18 22 19 16 74 120 70 133 -1 4 5 10 13
13 8 4 15 17 15 30 0 13 4 24 8 24 9 0 58 139 54 153 -1 4 2 7 7 7 5 0 11 12
14 28 2 15 12 60 21 101 21 94 22 241 2 356 -8 50 -17 106 -19 125 -2 20 -6
41 -10 46 -3 6 -7 26 -8 45 -1 19 -8 67 -16 108 -7 40 -16 110 -19 155 l-5 81
26 -38 c45 -64 108 -252 144 -426 18 -86 24 -95 74 -106 15 -3 46 -22 68 -42
22 -20 41 -34 44 -32 11 11 25 145 25 237 0 260 -89 571 -265 927 -109 219
-182 326 -278 407 -118 98 -309 184 -474 213 -78 14 -296 18 -393 8z m-340
-555 c0 6 7 12 15 12 17 0 19 -9 6 -28 -9 -15 -88 -25 -96 -12 -3 4 10 15 27
23 25 12 34 13 40 4 6 -9 8 -9 8 1z"/>
<path d="M19850 20149 c-59 -25 -78 -70 -42 -102 71 -65 309 -88 345 -34 24
37 2 86 -52 116 -35 19 -62 25 -135 27 -50 2 -102 -1 -116 -7z"/>
<path d="M18883 20000 c-75 -18 -136 -76 -136 -130 0 -61 55 -75 138 -36 92
43 134 124 83 160 -24 17 -36 18 -85 6z"/>
<path d="M19952 19774 c-28 -14 -30 -18 -17 -28 13 -9 14 -17 5 -40 -9 -23
-13 -26 -25 -16 -13 11 -15 8 -15 -20 0 -45 55 -100 102 -100 90 0 141 113 81
180 -35 38 -85 47 -131 24z"/>
<path d="M18887 19602 c-30 -33 -40 -78 -27 -119 17 -51 38 -73 70 -73 70 0
101 129 45 185 -29 29 -65 32 -88 7z m82 -20 c5 -10 6 -24 1 -32 -7 -11 -11
-11 -24 -1 -20 17 -21 51 -1 51 8 0 19 -8 24 -18z"/>
<path d="M20645 19387 c0 -137 1 -142 21 -145 12 -2 37 3 55 11 l34 15 -35 -2
-35 -1 -6 80 c-5 66 -26 185 -32 185 -1 0 -2 -64 -2 -143z"/>
<path d="M20814 19308 l-19 -23 23 19 c21 18 27 26 19 26 -2 0 -12 -10 -23
-22z"/>
<path d="M19562 19258 c-19 -21 -49 -43 -68 -50 -38 -13 -45 -28 -14 -28 39 0
89 28 105 60 26 49 13 59 -23 18z"/>
<path d="M18748 18953 c7 -3 16 -2 19 1 4 3 -2 6 -13 5 -11 0 -14 -3 -6 -6z"/>
<path d="M14167 18426 c-94 -50 -350 -214 -415 -266 -101 -81 -103 -160 -8
-299 63 -92 602 -793 776 -1009 136 -169 193 -215 269 -215 44 0 102 28 95 46
-2 7 10 21 28 31 74 43 376 247 416 281 36 31 42 42 42 76 0 79 -21 115 -219
374 -374 489 -699 900 -745 942 -50 46 -107 73 -154 73 -11 0 -49 -15 -85 -34z
m230 -52 c33 -25 204 -241 603 -759 348 -452 358 -469 309 -522 -27 -29 -373
-261 -430 -288 -69 -33 -105 -9 -242 164 -123 155 -541 695 -683 883 -146 194
-154 226 -72 288 57 43 311 205 382 243 58 31 83 29 133 -9z m-627 -347 c0
-16 -3 -17 -15 -7 -8 7 -15 24 -15 39 1 25 1 25 15 7 8 -11 15 -29 15 -39z"/>
<path d="M14501 18067 c-25 -85 -89 -155 -168 -182 l-38 -14 37 -15 c47 -20
71 -20 115 1 73 34 121 145 93 213 -18 45 -26 44 -39 -3z"/>
<path d="M20304 18253 c3 -27 9 -81 12 -120 4 -40 9 -73 11 -73 2 0 45 29 94
65 50 36 113 77 140 92 27 16 52 36 55 46 3 9 10 17 15 17 5 0 9 5 9 10 0 6
-64 10 -171 10 l-172 0 7 -47z"/>
<path d="M15652 18111 c-14 -45 -81 -111 -115 -112 -19 -1 -18 -2 8 -14 41
-18 77 -9 112 27 22 23 28 39 28 73 0 62 -18 76 -33 26z"/>
<path d="M19090 18039 c-38 -16 -40 -18 -13 -13 63 11 88 -25 62 -93 -18 -48
-80 -130 -129 -172 l-48 -40 14 -67 c14 -66 53 -154 153 -343 27 -52 57 -126
67 -165 22 -96 34 -106 68 -66 14 17 26 38 26 45 0 7 -27 58 -59 113 -145 243
-190 383 -161 492 20 73 45 99 139 142 47 22 88 42 90 43 2 2 -6 17 -18 33
-12 17 -21 34 -21 39 -1 16 -38 53 -65 63 -36 14 -53 12 -105 -11z"/>
<path d="M20920 17884 c-90 -12 -214 -50 -306 -94 -169 -82 -259 -159 -524
-449 -87 -96 -161 -161 -182 -161 -5 0 7 14 26 31 29 25 66 79 66 96 0 10
-136 -102 -142 -117 -10 -27 -41 -32 -89 -16 -40 14 -42 14 -24 -1 11 -8 53
-31 93 -50 84 -41 130 -41 204 -3 53 27 72 44 230 192 224 211 364 314 553
404 133 64 246 94 352 94 l78 1 -28 24 c-15 13 -44 29 -65 35 -42 12 -189 20
-242 14z"/>
<path d="M19493 17274 c-18 -8 -33 -19 -33 -25 0 -6 16 -1 36 11 25 16 44 21
67 16 23 -4 28 -3 17 4 -20 13 -48 11 -87 -6z"/>
<path d="M19607 17259 c7 -7 15 -10 18 -7 3 3 -2 9 -12 12 -14 6 -15 5 -6 -5z"/>
<path d="M18925 17225 c-88 -47 -143 -82 -183 -116 -18 -16 -44 -29 -57 -29
-33 0 -31 -12 4 -33 47 -27 75 -22 141 26 73 54 196 187 172 187 -6 0 -40 -16
-77 -35z"/>
<path d="M17666 16546 c-30 -33 -45 -85 -40 -143 7 -86 58 -91 95 -10 23 52
25 139 3 161 -21 22 -31 20 -58 -8z"/>
<path d="M22970 16184 c-119 -32 -433 -206 -650 -361 -124 -88 -225 -176 -225
-196 0 -16 100 -127 116 -127 4 0 16 26 26 58 14 47 30 70 88 127 78 79 212
173 325 230 87 44 202 74 299 77 68 3 68 3 54 25 -14 21 -12 26 26 69 45 51
52 87 22 104 -11 5 -21 10 -23 9 -2 0 -28 -7 -58 -15z"/>
<path d="M15498 15920 c-3 -8 -14 -46 -26 -83 l-20 -68 21 7 c38 11 47 25 46
68 -1 51 -14 97 -21 76z"/>
<path d="M14480 15893 c0 -10 196 -94 413 -178 167 -64 231 -85 240 -76 13 13
18 10 -78 50 -212 89 -575 218 -575 204z"/>
<path d="M21624 15813 c3 -16 8 -68 11 -118 3 -49 10 -121 15 -160 12 -88 18
-134 26 -210 4 -33 10 -67 14 -75 5 -9 4 -24 -2 -34 -8 -14 -7 -17 1 -12 8 5
10 -2 6 -24 -4 -24 -2 -30 7 -24 10 6 10 5 1 -7 -16 -20 -13 -61 5 -54 8 3 10
0 5 -8 -12 -19 -12 -70 0 -58 16 16 19 81 4 81 -8 0 -8 3 2 9 7 5 10 14 7 20
-4 6 -1 11 6 11 8 0 9 3 2 8 -11 7 -14 52 -4 52 8 0 6 38 -3 46 -3 4 -2 14 3
24 5 10 6 20 3 24 -3 3 -1 6 5 6 6 0 10 8 10 18 -1 9 4 35 11 57 14 44 16 51
55 141 14 34 26 71 26 83 0 21 -193 231 -212 231 -5 0 -7 -12 -4 -27z"/>
<path d="M22020 15561 c-5 -11 -10 -29 -10 -40 0 -18 6 -21 43 -21 24 0 47 3
51 7 7 7 -52 73 -66 73 -4 0 -12 -9 -18 -19z"/>
<path d="M17472 15500 c20 -11 126 -54 235 -95 229 -88 330 -134 357 -163 18
-21 18 -23 -3 -94 -64 -217 -179 -441 -283 -554 -86 -94 -214 -160 -354 -183
-59 -10 -289 -8 -354 4 -19 3 -66 11 -105 17 -81 14 -68 11 -125 27 -120 35
-232 72 -305 101 -171 68 -424 201 -569 299 -42 29 -76 50 -76 47 0 -7 125
-104 240 -186 375 -270 708 -434 963 -476 184 -31 374 15 562 134 162 104 303
285 408 527 33 75 36 91 48 253 6 95 10 175 7 178 -3 2 -45 11 -94 20 -161 27
-392 91 -522 143 -65 26 -79 26 -30 1z"/>
<path d="M21716 15001 c-4 -5 -2 -12 3 -15 5 -4 12 -2 15 3 4 5 2 12 -3 15 -5
4 -12 2 -15 -3z"/>
<path d="M21710 14963 c0 -7 5 -15 10 -18 8 -5 7 -11 -1 -21 -10 -12 -9 -13 5
-8 9 3 16 9 16 13 -1 12 -30 45 -30 34z"/>
<path d="M21716 14851 c-3 -5 1 -11 9 -14 9 -4 12 -1 8 9 -6 16 -10 17 -17 5z"/>
<path d="M23820 14374 c0 -10 5 -26 10 -34 8 -11 9 -7 4 15 -8 37 -14 45 -14
19z"/>
<path d="M23858 14227 c72 -280 153 -655 211 -982 6 -33 17 -96 25 -140 36
-193 104 -648 126 -840 5 -49 15 -130 20 -180 30 -261 58 -762 51 -925 -3 -80
-31 -193 -64 -260 -29 -58 -40 -71 -113 -119 -109 -74 -127 -101 -125 -193 1
-40 5 -109 10 -153 13 -129 7 -210 -28 -335 -18 -63 -36 -119 -40 -125 -4 -5
-13 -30 -20 -55 -37 -127 -147 -275 -221 -296 l-35 -10 43 -23 c59 -30 130
-38 169 -17 76 39 158 165 226 346 14 36 39 100 56 143 17 43 31 86 31 96 0 9
5 22 12 29 7 7 9 12 5 12 -3 0 1 19 10 43 8 23 16 51 18 62 2 11 7 31 13 45 5
14 10 27 10 30 -1 3 2 28 6 55 7 48 14 132 21 240 2 28 10 97 18 155 9 58 18
137 21 177 5 70 -10 656 -19 738 -2 22 -7 76 -10 120 -13 169 -63 574 -101
820 -37 240 -47 300 -80 480 -74 403 -150 751 -228 1040 -2 6 -9 31 -16 58 -7
26 -15 49 -19 51 -4 3 4 -37 17 -87z"/>
<path d="M21777 14053 c-4 -3 -7 -11 -7 -17 0 -6 5 -5 12 2 6 6 9 14 7 17 -3
3 -9 2 -12 -2z"/>
<path d="M21754 14009 c-5 -8 -3 -9 6 -4 9 5 10 2 5 -14 -5 -16 -2 -21 12 -20
10 0 13 3 6 5 -7 3 -10 11 -7 19 7 17 -12 29 -22 14z"/>
<path d="M21761 13941 c-16 -16 -20 -26 -13 -33 11 -11 5 -41 -7 -34 -3 2 -19
-16 -36 -40 -28 -41 -33 -44 -120 -65 -49 -12 -127 -24 -172 -26 -46 -3 -81
-8 -79 -12 2 -3 -33 -5 -77 -4 -58 1 -73 -1 -52 -6 18 -5 -57 -9 -190 -10
-121 0 -290 -5 -375 -10 -85 -6 -211 -12 -280 -16 -69 -3 -197 -9 -285 -15
-88 -5 -259 -14 -380 -20 -121 -6 -330 -17 -465 -25 -135 -8 -335 -19 -445
-25 -110 -6 -258 -15 -330 -21 -71 -5 -174 -12 -228 -16 -54 -3 -100 -10 -103
-15 -14 -23 39 -242 83 -341 l26 -57 -40 -108 c-48 -128 -66 -179 -87 -252
-24 -85 -63 -232 -69 -260 -2 -14 -14 -68 -25 -120 -43 -194 -99 -516 -147
-840 -14 -96 -30 -202 -35 -235 -18 -107 -129 -951 -160 -1215 -5 -41 -16
-136 -25 -210 -74 -627 -93 -823 -104 -1100 -15 -394 18 -854 89 -1225 78
-405 117 -583 229 -1035 44 -175 66 -259 132 -510 104 -389 526 -1885 642
-2270 l13 -45 50 0 c27 1 71 3 98 5 l49 5 14 -49 c13 -42 17 -47 36 -42 90 27
142 38 245 51 152 20 307 24 323 8 15 -15 93 -289 120 -426 20 -96 25 -110 46
-118 40 -15 43 -11 27 34 -45 127 -137 518 -149 633 -8 71 -8 70 92 108 39 15
77 33 83 41 8 10 -17 153 -105 597 -153 770 -259 1314 -295 1523 -4 28 -22
124 -39 215 -17 91 -46 262 -66 380 -133 803 -168 1118 -169 1535 0 305 13
447 74 767 99 523 557 2513 711 3093 19 69 26 20 33 -225 18 -631 62 -1455
136 -2569 49 -731 95 -1062 200 -1436 219 -779 691 -1660 2028 -3780 280 -444
252 -409 321 -402 31 4 75 13 99 21 42 15 42 15 59 -12 9 -15 27 -44 39 -64
l23 -37 78 38 c43 21 105 51 138 66 33 15 99 47 147 71 110 56 161 74 187 67
20 -5 176 -243 230 -350 24 -48 27 -49 96 -22 l50 18 -46 -5 -45 -6 -91 139
c-83 127 -172 277 -233 395 l-25 47 37 38 c45 47 88 111 88 130 0 8 -62 126
-139 262 -1201 2133 -1618 3006 -1751 3660 -66 328 -65 642 10 1776 5 83 14
222 20 310 13 215 38 577 50 755 14 203 49 689 60 850 6 74 17 227 25 340 29
382 44 631 39 644 -3 7 20 86 50 177 73 218 85 286 94 496 l7 178 82 10 c158
20 119 30 -175 45 -112 5 -240 11 -285 11 -65 2 -52 4 63 10 148 9 237 28 264
58 8 9 14 18 14 21 -1 3 2 15 6 28 5 13 3 29 -4 37 -9 11 -7 12 12 8 22 -6 22
-5 6 14 -13 14 -15 22 -7 30 6 6 9 17 7 24 -3 9 -11 6 -27 -10z m6 -20 c0 -11
-5 -18 -9 -15 -4 3 -5 11 -1 19 7 21 12 19 10 -4z m-1212 -807 c74 -18 135
-43 136 -58 2 -43 -3 -215 -11 -341 -9 -145 -13 -276 -25 -715 -3 -113 -8
-263 -11 -335 -2 -71 -7 -629 -9 -1240 -8 -1678 -11 -1944 -30 -2054 -17 -104
-47 -168 -79 -173 -25 -4 -76 27 -76 47 0 7 -6 20 -14 27 -29 30 -134 303
-122 316 3 2 0 15 -5 29 -8 21 -33 161 -44 243 -10 80 -25 225 -29 285 -8 106
-15 220 -21 320 -3 50 -7 119 -10 155 -2 36 -7 139 -10 230 -3 91 -8 197 -10
235 -2 39 -7 133 -10 210 -3 77 -7 181 -10 230 -7 127 -13 275 -20 460 -3 88
-8 210 -11 270 -19 461 -29 889 -29 1348 0 511 -10 458 94 498 106 40 225 45
356 13z m-1899 -38 c38 -13 86 -31 106 -40 43 -18 174 -102 183 -116 3 -5 -1
-24 -9 -42 -25 -55 -46 -108 -92 -233 -24 -66 -48 -129 -53 -140 -5 -11 -21
-60 -36 -110 -15 -49 -32 -96 -38 -102 -5 -7 -7 -13 -4 -13 3 0 -4 -28 -15
-62 -26 -83 -46 -151 -64 -218 -8 -30 -24 -86 -35 -125 -35 -119 -38 -129 -43
-155 -3 -14 -10 -45 -17 -70 -6 -25 -13 -56 -15 -70 -4 -23 -18 -71 -32 -110
-3 -8 -6 -22 -7 -30 0 -8 -4 -24 -8 -35 -3 -11 -9 -36 -12 -55 -3 -19 -8 -43
-11 -53 -3 -11 -7 -29 -9 -40 -1 -12 -9 -46 -18 -74 -9 -29 -13 -53 -10 -53 3
0 0 -7 -7 -15 -7 -8 -10 -15 -7 -15 2 0 -2 -30 -9 -67 -17 -84 -17 -83 -32
-110 -9 -15 -9 -23 -2 -23 7 0 8 -6 0 -19 -5 -11 -12 -37 -15 -58 -10 -74 -17
-108 -23 -118 -3 -5 -7 -16 -8 -25 0 -8 -11 -62 -24 -120 -12 -58 -23 -112
-24 -120 0 -8 -4 -17 -8 -20 -3 -3 -8 -23 -10 -45 -2 -22 -7 -46 -12 -53 -4
-7 -2 -12 6 -12 8 0 9 -3 3 -8 -10 -7 -17 -27 -18 -49 0 -7 -5 -13 -11 -13 -6
0 -4 -5 4 -10 12 -8 12 -10 1 -10 -8 0 -12 -2 -9 -5 3 -3 1 -27 -4 -53 -5 -26
-11 -65 -14 -86 -3 -22 -8 -44 -11 -48 -2 -5 -7 -28 -10 -51 -2 -23 -7 -44
-11 -47 -4 -3 -8 -16 -10 -30 -1 -14 -5 -32 -9 -40 -3 -8 -5 -25 -4 -37 1 -13
-3 -23 -9 -23 -6 0 -8 -5 -3 -12 11 -19 12 -38 2 -38 -6 0 -7 -4 -4 -10 3 -5
1 -10 -4 -10 -6 0 -11 -5 -11 -11 0 -5 5 -7 10 -4 18 11 11 -11 -10 -30 -20
-18 -18 -41 2 -29 7 5 8 2 2 -7 -16 -25 -32 -79 -22 -73 6 4 5 -4 -2 -16 -7
-12 -10 -32 -8 -44 3 -12 -2 -28 -9 -35 -11 -10 -11 -16 -2 -27 10 -12 8 -18
-8 -33 -15 -14 -19 -29 -17 -65 2 -32 0 -44 -8 -40 -7 5 -9 2 -6 -7 3 -8 -1
-28 -8 -44 -8 -17 -12 -21 -9 -11 5 16 3 17 -10 6 -11 -9 -12 -16 -5 -25 18
-22 6 -60 -20 -60 -13 0 -26 7 -28 15 -5 13 -3 13 14 0 11 -9 9 -3 -6 14 -14
16 -19 26 -11 21 8 -4 17 -2 22 6 14 23 10 32 -8 18 -10 -8 -14 -9 -10 -2 4 6
3 14 -3 18 -19 12 -10 35 13 35 17 0 19 2 7 10 -9 5 -13 22 -12 44 2 24 -2 36
-10 36 -8 0 -9 3 -3 8 13 9 15 22 21 111 4 75 5 90 3 114 -1 21 11 131 17 157
3 14 6 31 6 38 1 6 5 12 10 12 5 0 6 5 3 10 -4 6 -11 7 -17 4 -7 -4 -7 0 0 12
5 11 7 25 4 33 -2 8 -1 11 4 8 5 -3 10 16 11 41 3 75 11 160 16 169 2 4 3 29
2 56 -1 26 1 47 4 47 6 0 10 36 14 132 1 27 6 48 10 48 4 0 7 6 6 13 -1 6 -1
36 0 65 1 40 4 51 14 46 8 -6 8 -3 -1 9 -8 9 -11 20 -8 26 3 5 9 47 12 93 3
46 7 90 10 98 3 8 8 44 10 80 4 57 10 105 14 105 0 0 3 33 5 72 2 40 6 81 9
90 7 25 19 120 20 166 0 20 3 37 6 37 3 0 6 26 8 58 1 31 6 86 12 122 5 36 12
88 14 115 3 28 7 64 9 80 3 17 9 64 13 105 9 78 10 92 14 100 1 3 3 32 6 65 3
33 7 74 10 90 6 37 25 189 28 230 2 17 7 53 11 80 5 28 9 59 10 70 1 11 5 31
8 45 3 14 8 48 11 75 3 28 13 86 22 130 8 44 17 94 20 110 6 50 22 117 39 175
9 30 17 63 18 73 1 9 5 17 10 17 4 0 7 6 6 13 0 6 2 22 6 35 7 20 13 22 84 22
56 0 97 -7 147 -24z"/>
<path d="M17960 9280 c-9 -6 -10 -10 -3 -10 6 0 15 5 18 10 8 12 4 12 -15 0z"/>
<path d="M17980 9215 c0 -8 2 -15 4 -15 2 0 6 7 10 15 3 8 1 15 -4 15 -6 0
-10 -7 -10 -15z"/>
<path d="M23630 10690 c-25 -5 -65 -13 -90 -18 l-45 -8 78 -38 c58 -28 84 -47
99 -72 11 -19 26 -34 33 -34 7 0 34 17 61 39 27 21 59 43 70 49 13 7 22 21 22
36 0 19 -9 28 -36 39 -40 16 -127 19 -192 7z"/>
<path d="M23682 3455 c-40 -14 -90 -36 -111 -49 -113 -72 -166 -213 -176 -470
-5 -128 -18 -187 -65 -301 -15 -38 -40 -115 -55 -170 -14 -55 -57 -195 -95
-312 -39 -116 -70 -225 -70 -240 0 -33 54 -93 83 -93 63 0 276 77 382 138 225
130 545 485 545 606 0 37 -11 61 -21 45 -4 -8 -11 -11 -14 -8 -6 6 -95 355
-95 372 0 4 5 5 10 2 15 -9 6 27 -53 205 -29 85 -68 186 -88 225 -32 65 -38
70 -70 72 -19 2 -67 -8 -107 -22z"/>
<path d="M23194 3381 c4 -6 14 -50 22 -98 8 -49 23 -133 33 -188 l18 -100 11
39 c6 22 17 65 24 95 6 31 14 58 18 61 3 3 11 19 19 35 13 30 12 31 -50 88
-64 58 -108 90 -95 68z"/>
<path d="M19194 3276 c22 -41 26 -62 26 -130 0 -45 -4 -98 -9 -118 -5 -21 -7
-38 -5 -38 2 0 15 12 29 27 17 19 26 40 27 68 1 37 2 37 5 8 l4 -33 44 33 c24
17 44 37 45 42 0 10 -114 125 -169 170 l-23 20 26 -49z"/>
<path d="M19579 3127 c-79 -36 -155 -153 -185 -282 -11 -46 -20 -105 -19 -127
1 -16 -3 -28 -8 -28 -4 0 -5 -4 -2 -10 3 -5 1 -10 -4 -10 -6 0 -10 -3 -9 -7 4
-16 -14 -53 -23 -48 -5 4 -9 0 -9 -8 0 -23 -144 -115 -154 -98 -4 6 -101 7
-101 1 0 -1 -14 -3 -32 -4 -20 -2 -52 -20 -85 -47 -29 -24 -64 -53 -77 -64
-128 -104 -247 -228 -277 -287 -22 -43 -25 -61 -21 -109 2 -31 7 -61 11 -67 7
-12 115 -36 236 -53 110 -15 397 -7 515 15 196 36 440 105 551 156 59 26 64
31 55 49 -8 14 -7 60 4 161 10 92 15 245 15 435 0 210 3 294 11 297 7 2 9 13
5 26 -10 31 -90 69 -204 98 -103 26 -153 29 -193 11z"/>
<path d="M24011 2944 c0 -11 3 -14 6 -6 3 7 2 16 -1 19 -3 4 -6 -2 -5 -13z"/>
<path d="M22781 2945 c1 -19 18 -51 18 -35 0 8 -4 22 -9 30 -5 8 -9 11 -9 5z"/>
<path d="M22800 2759 c0 -6 -6 -9 -14 -6 -8 3 -17 -1 -20 -9 -7 -19 18 -18 38
2 19 18 20 24 6 24 -5 0 -10 -5 -10 -11z"/>
<path d="M22709 2589 c-10 -19 -9 -20 13 -8 31 16 31 16 14 22 -10 4 -20 -2
-27 -14z"/>
<path d="M22647 2486 c-4 -10 -5 -21 -2 -24 9 -9 17 6 13 25 -3 17 -4 17 -11
-1z"/>
</g>
</svg>
