<svg width="28" height="29" viewBox="0 0 28 29" fill="none" xmlns="http://www.w3.org/2000/svg">
<path d="M26.472 2.02822C25.9854 1.54111 25.4075 1.15469 24.7715 0.891047C24.1354 0.627401 23.4536 0.491699 22.765 0.491699C22.0765 0.491699 21.3947 0.627401 20.7586 0.891047C20.1226 1.15469 19.5447 1.54111 19.058 2.02822L3.31404 17.7722C2.56669 18.5207 2.03354 19.4558 1.77004 20.4802L0.0300399 27.2522C-0.0131095 27.4207 -0.0115646 27.5976 0.0345222 27.7653C0.0806089 27.933 0.169644 28.0858 0.292835 28.2086C0.416026 28.3314 0.569113 28.4199 0.736979 28.4654C0.904846 28.511 1.08169 28.5119 1.25004 28.4682L8.02004 26.7302C9.0448 26.4676 9.98012 25.9344 10.728 25.1862L26.472 9.44222C26.9592 8.95558 27.3456 8.3777 27.6092 7.74163C27.8729 7.10556 28.0086 6.42377 28.0086 5.73522C28.0086 5.04668 27.8729 4.36488 27.6092 3.72881C27.3456 3.09274 26.9592 2.51486 26.472 2.02822ZM20.472 3.44222C21.0802 2.83408 21.905 2.49243 22.765 2.49243C23.6251 2.49243 24.4499 2.83408 25.058 3.44222C25.6662 4.05036 26.0078 4.87518 26.0078 5.73522C26.0078 6.59526 25.6662 7.42008 25.058 8.02822L23.5 9.58622L18.914 5.00022L20.472 3.44222ZM17.5 6.41422L22.086 11.0002L9.31404 23.7722C8.81903 24.2668 8.20007 24.6191 7.52204 24.7922L2.38804 26.1122L3.70804 20.9782C3.88019 20.2998 4.23264 19.6806 4.72804 19.1862L17.5 6.41422Z" fill="white"/>
</svg>
