<svg width="32" height="33" viewBox="0 0 32 33" fill="none" xmlns="http://www.w3.org/2000/svg">
<g opacity="0.8">
<path d="M28.472 4.02801C27.9854 3.5409 27.4075 3.15448 26.7715 2.89083C26.1354 2.62719 25.4536 2.49149 24.765 2.49149C24.0765 2.49149 23.3947 2.62719 22.7586 2.89083C22.1226 3.15448 21.5447 3.5409 21.058 4.02801L5.31404 19.772C4.56669 20.5205 4.03354 21.4556 3.77004 22.48L2.03004 29.252C1.98689 29.4205 1.98844 29.5973 2.03452 29.7651C2.08061 29.9328 2.16964 30.0856 2.29283 30.2084C2.41603 30.3311 2.56911 30.4197 2.73698 30.4652C2.90485 30.5107 3.08169 30.5117 3.25004 30.468L10.02 28.73C11.0448 28.4674 11.9801 27.9341 12.728 27.186L28.472 11.442C28.9592 10.9554 29.3456 10.3775 29.6092 9.74142C29.8729 9.10535 30.0086 8.42355 30.0086 7.73501C30.0086 7.04646 29.8729 6.36467 29.6092 5.7286C29.3456 5.09253 28.9592 4.51465 28.472 4.02801ZM22.472 5.44201C23.0802 4.83387 23.905 4.49222 24.765 4.49222C25.6251 4.49222 26.4499 4.83387 27.058 5.44201C27.6662 6.05015 28.0078 6.87497 28.0078 7.73501C28.0078 8.59505 27.6662 9.41987 27.058 10.028L25.5 11.586L20.914 7.00001L22.472 5.44201ZM19.5 8.41401L24.086 13L11.314 25.772C10.819 26.2666 10.2001 26.6189 9.52204 26.792L4.38804 28.112L5.70804 22.978C5.88019 22.2996 6.23264 21.6804 6.72804 21.186L19.5 8.41401Z" fill="#1D1D1D"/>
</g>
</svg>
