<?xml version="1.0" standalone="no"?>
<!DOCTYPE svg PUBLIC "-//W3C//DTD SVG 20010904//EN"
 "http://www.w3.org/TR/2001/REC-SVG-20010904/DTD/svg10.dtd">
<svg version="1.0" xmlns="http://www.w3.org/2000/svg"
 width="4096.000000pt" height="2304.000000pt" viewBox="0 0 4096.000000 2304.000000"
 preserveAspectRatio="xMidYMid meet">

<g transform="translate(0.000000,2304.000000) scale(0.100000,-0.100000)"
fill="#000000" stroke="none">
<path d="M17706 19859 c-380 -26 -537 -82 -716 -259 -149 -147 -226 -275 -262
-433 -35 -153 -29 -512 13 -802 17 -119 61 -329 71 -340 6 -6 7 96 2 265 -7
293 -2 352 37 434 43 91 142 162 269 192 32 7 141 18 242 24 101 5 197 12 213
15 17 2 53 7 80 10 28 3 73 10 100 15 87 17 366 41 465 41 104 0 187 -18 266
-57 57 -28 114 -78 114 -101 0 -8 5 -11 11 -8 7 5 8 1 1 -11 -24 -46 -55 -189
-53 -247 0 -34 -3 -75 -7 -91 -5 -18 -3 -48 4 -78 12 -45 31 -249 27 -293 -6
-78 -15 -145 -24 -173 -8 -23 -8 -42 0 -64 17 -48 13 -61 -24 -88 -38 -29 -78
-105 -73 -141 3 -21 -1 -24 -35 -27 -32 -3 -43 -11 -76 -55 -39 -54 -170 -191
-229 -240 -62 -52 -231 -158 -319 -199 -172 -81 -366 -110 -500 -74 -29 8 -53
12 -53 10 0 -2 26 -21 58 -41 31 -20 64 -43 73 -52 11 -12 63 -24 170 -40 162
-24 379 -64 440 -81 20 -6 49 -20 64 -32 27 -21 27 -22 20 -102 -4 -44 -15
-125 -26 -181 -10 -55 -19 -101 -19 -102 0 -9 56 -1 79 12 26 13 29 20 35 87
10 106 44 315 61 372 l15 49 -38 -7 c-41 -8 -235 -25 -240 -21 -2 1 37 22 85
46 48 24 95 50 103 59 19 17 49 37 70 47 8 3 34 26 58 50 23 24 47 43 52 43 6
0 10 3 10 8 0 4 23 32 52 62 49 53 106 128 121 160 4 8 15 29 25 45 35 58 90
173 110 230 27 77 52 176 47 185 -3 6 -2 10 3 10 11 0 11 2 18 130 4 70 -1
181 -15 335 -12 127 -23 281 -26 344 -5 112 -4 114 14 97 11 -10 31 -47 45
-82 36 -90 51 -178 80 -495 4 -36 1 -49 -14 -62 -15 -13 -18 -23 -12 -54 8
-44 9 -264 2 -338 l-5 -50 42 2 c37 1 123 35 123 48 0 3 -14 -2 -31 -10 -52
-27 -59 -17 -59 87 -1 51 -8 129 -16 173 -9 44 -17 94 -18 110 -1 28 1 30 34
30 19 -1 45 -4 56 -8 19 -7 22 -3 28 30 10 66 6 274 -8 398 -34 283 -131 646
-219 820 -66 129 -223 272 -395 359 -115 58 -352 119 -447 115 -16 -1 -83 -6
-149 -10z m-346 -439 c0 -5 -7 -10 -15 -10 -8 0 -15 5 -15 10 0 6 7 10 15 10
8 0 15 -4 15 -10z m35 0 c3 -6 -1 -7 -9 -4 -18 7 -21 14 -7 14 6 0 13 -4 16
-10z"/>
<path d="M18133 18726 c-27 -12 -33 -21 -33 -46 0 -44 35 -72 122 -98 134 -40
230 -52 243 -32 8 13 -34 87 -67 117 -60 56 -202 88 -265 59z"/>
<path d="M17125 18636 c-120 -57 -154 -166 -52 -166 50 0 150 45 190 85 32 33
36 79 8 95 -32 17 -93 11 -146 -14z"/>
<path d="M18199 18350 c-14 -11 -18 -19 -11 -20 9 0 12 -11 10 -32 -2 -20 -8
-32 -15 -30 -20 3 -15 -32 7 -60 25 -32 72 -52 104 -44 29 7 66 63 66 100 0
85 -99 138 -161 86z"/>
<path d="M17140 18263 c-77 -68 -30 -207 60 -178 11 4 32 24 46 45 21 31 24
45 18 76 -8 47 -39 84 -71 84 -12 0 -37 -12 -53 -27z m85 -38 c0 -36 -28 -46
-44 -16 -15 27 -3 53 23 49 16 -2 21 -10 21 -33z"/>
<path d="M17833 17937 c-7 -15 -33 -42 -58 -59 -51 -36 -47 -47 8 -24 41 17
70 55 65 88 -3 22 -3 22 -15 -5z"/>
<path d="M16858 17573 c7 -3 16 -2 19 1 4 3 -2 6 -13 5 -11 0 -14 -3 -6 -6z"/>
<path d="M17046 16779 c43 -12 48 -40 15 -83 -33 -44 -65 -69 -149 -115 -42
-23 -72 -47 -80 -64 -26 -53 -26 -200 -2 -342 15 -86 22 -165 21 -232 -1 -80
2 -103 12 -103 7 0 37 22 67 48 l54 49 -13 59 c-6 32 -19 88 -28 124 -11 41
-17 111 -17 190 -1 119 0 128 27 175 38 68 78 93 178 111 45 8 84 16 86 18 2
2 -6 24 -17 50 -11 26 -20 54 -20 61 0 7 -14 25 -31 39 -25 21 -40 26 -82 25
-48 -1 -50 -1 -21 -10z"/>
<path d="M18230 16691 c0 -4 -7 -48 -15 -96 -9 -48 -13 -90 -11 -93 3 -2 36 7
73 20 49 18 72 32 81 51 15 31 58 67 81 67 30 1 -10 17 -96 39 -89 23 -113 26
-113 12z"/>
<path d="M18518 16233 c12 -2 32 -2 45 0 12 2 2 4 -23 4 -25 0 -35 -2 -22 -4z"/>
<path d="M18378 16223 c7 -3 16 -2 19 1 4 3 -2 6 -13 5 -11 0 -14 -3 -6 -6z"/>
<path d="M18635 16224 c11 -3 47 -10 80 -16 l60 -12 -67 -11 c-37 -6 -101 -10
-142 -7 -94 5 -251 -12 -348 -39 -103 -28 -243 -98 -457 -228 -182 -110 -258
-148 -144 -72 63 43 100 78 91 87 -4 3 -23 -6 -45 -19 -21 -13 -62 -36 -91
-51 -28 -14 -52 -33 -52 -41 0 -18 -16 -27 -60 -35 l-35 -6 48 -28 c53 -32
112 -37 187 -16 25 6 137 55 250 107 243 114 297 136 398 168 243 75 530 77
648 4 17 -10 34 -19 38 -19 11 0 27 52 21 70 -6 17 -104 91 -138 103 -10 4
-16 11 -12 16 9 16 -137 51 -205 50 -25 -1 -36 -3 -25 -5z"/>
<path d="M16627 16079 c-22 -5 -75 -25 -118 -44 -44 -19 -91 -35 -104 -35 -14
0 -25 -4 -25 -10 0 -19 43 -32 83 -26 42 7 185 74 227 106 l25 20 -25 -1 c-14
-1 -42 -5 -63 -10z"/>
<path d="M17136 15971 c-3 -4 6 -6 19 -3 14 2 25 6 25 8 0 8 -39 4 -44 -5z"/>
<path d="M13336 15827 c1 -117 3 -126 43 -232 74 -198 66 -263 -36 -272 -29
-3 -60 0 -74 7 -32 16 34 -43 136 -122 82 -62 157 -103 212 -114 l32 -6 -19
58 c-10 33 -23 97 -28 144 -12 93 -27 134 -94 256 -50 90 -104 213 -142 323
-14 41 -27 75 -28 77 -2 1 -2 -52 -2 -119z"/>
<path d="M13655 15494 c79 -74 149 -94 196 -55 l24 19 -46 -5 c-57 -6 -103 8
-172 53 l-52 35 50 -47z"/>
<path d="M13791 15094 c-18 -8 -42 -14 -52 -14 -10 0 -21 -5 -24 -10 -3 -6
-11 -99 -17 -208 -22 -420 39 -1039 133 -1347 26 -84 72 -134 163 -176 67 -30
115 -46 104 -34 -4 5 -2 15 5 23 8 11 8 13 0 9 -7 -5 -13 8 -16 41 -7 66 -14
99 -23 114 -4 6 -9 21 -10 33 -2 11 -12 63 -24 115 -12 52 -25 120 -31 150 -5
30 -12 69 -15 85 -2 17 -7 55 -10 85 -2 29 -8 56 -12 60 -4 3 -8 19 -8 35 0
17 -6 62 -12 100 -7 39 -15 97 -18 130 -7 75 -11 99 -14 103 -1 1 -3 10 -4 20
-6 54 -18 160 -21 182 -2 14 -6 50 -10 80 -3 30 -8 71 -11 90 -2 19 -6 55 -9
80 -2 25 -6 65 -9 90 -3 25 -8 74 -12 110 -3 36 -7 66 -7 67 -1 1 -17 -5 -36
-13z"/>
<path d="M18872 14347 c-56 -144 -210 -636 -251 -802 -5 -22 -15 -58 -21 -80
-6 -22 -17 -65 -25 -95 -7 -30 -21 -82 -30 -115 -9 -33 -20 -82 -25 -109 -5
-26 -14 -62 -19 -80 -6 -17 -13 -42 -15 -56 -3 -14 -10 -43 -16 -65 -19 -73
-82 -340 -86 -365 -3 -14 -7 -32 -10 -40 -3 -8 -14 -46 -24 -85 -16 -62 -39
-131 -57 -175 -3 -8 -7 -17 -7 -20 -1 -3 -11 -16 -23 -30 -12 -14 -30 -35 -41
-47 -17 -20 -29 -23 -98 -24 -96 0 -177 16 -729 151 -88 21 -396 94 -685 160
-289 67 -656 152 -816 190 -267 63 -801 179 -901 195 -40 6 -43 5 -49 -20 -9
-37 -10 -271 -2 -330 8 -50 8 -50 -56 -140 -111 -155 -231 -336 -295 -445 -35
-58 -67 -112 -72 -120 -112 -187 -499 -963 -777 -1560 -211 -454 -353 -769
-408 -902 -167 -410 -223 -743 -179 -1057 82 -573 418 -1096 1290 -2006 122
-128 116 -87 54 -345 -37 -154 -60 -250 -94 -395 -8 -33 -30 -127 -50 -210
-147 -618 -205 -874 -205 -900 0 -83 116 -178 392 -320 158 -81 178 -95 178
-130 0 -29 -32 -179 -61 -280 -73 -265 -90 -329 -85 -341 3 -7 17 -14 33 -17
27 -4 26 -4 -5 -6 -108 -4 -159 -66 -288 -346 -21 -46 -53 -85 -139 -170 -61
-60 -142 -146 -181 -190 -38 -44 -74 -84 -80 -90 -6 -5 -30 -35 -55 -65 -24
-30 -46 -57 -49 -60 -14 -12 -101 -140 -96 -140 4 0 -1 -11 -10 -25 -20 -30
-15 -128 7 -150 26 -26 250 -58 404 -58 199 0 381 46 600 152 112 54 151 80
123 81 -27 0 -31 39 -17 157 8 68 13 230 14 438 0 182 4 336 9 343 4 7 14 11
22 8 21 -8 17 9 -8 39 -24 27 -141 75 -184 75 -27 0 -28 -6 8 130 11 41 28
107 38 145 67 262 92 345 123 417 19 46 22 48 76 58 95 17 163 43 182 70 10
14 111 336 224 715 674 2251 891 2902 1195 3570 79 176 375 764 560 1115 51
96 117 222 147 280 31 58 111 202 178 320 67 118 144 256 171 307 27 51 50 90
52 88 5 -4 -35 -86 -125 -255 -56 -107 -62 -124 -82 -245 -11 -71 -28 -202
-36 -290 -8 -88 -17 -180 -20 -205 -25 -203 -64 -1353 -65 -1880 0 -487 16
-963 50 -1460 12 -166 62 -492 95 -610 83 -299 196 -515 389 -739 172 -200
362 -349 581 -456 110 -54 771 -325 793 -325 4 0 57 -16 117 -35 122 -39 443
-97 630 -115 66 -6 167 -15 225 -21 331 -31 1684 -67 2650 -70 l195 0 50 -62
c27 -34 158 -186 291 -337 498 -568 864 -916 1134 -1077 80 -47 152 -90 160
-94 66 -34 872 -331 935 -344 44 -9 95 -21 113 -27 27 -8 50 -4 140 26 l108
36 76 103 c73 98 77 108 121 252 77 254 109 569 123 1220 4 160 9 293 13 296
3 3 60 21 126 39 664 179 1050 393 1351 745 319 375 451 758 519 1510 24 267
27 310 45 680 29 587 37 1893 15 2315 -46 847 -96 1154 -241 1474 -65 144
-176 321 -250 401 l-55 60 59 -80 c139 -189 258 -454 310 -686 41 -183 49
-269 28 -310 -9 -18 -16 -39 -16 -46 0 -8 -4 -13 -8 -11 -27 10 -168 184 -221
271 -88 145 -160 243 -234 322 -24 26 -23 20 12 -37 141 -235 211 -549 246
-1113 22 -349 31 -1446 16 -2025 -11 -436 -35 -1001 -46 -1085 -3 -22 -10 -98
-15 -170 -6 -71 -22 -206 -36 -300 -64 -427 -180 -681 -419 -921 -333 -335
-665 -436 -1590 -485 -562 -29 -4055 -18 -4937 16 -836 32 -1229 86 -1503 207
-49 22 -105 46 -123 54 -56 25 -28 0 60 -53 132 -80 223 -126 368 -187 74 -31
176 -76 225 -98 118 -54 356 -134 475 -160 151 -32 281 -57 335 -63 28 -4 56
-8 64 -11 8 -2 55 -7 105 -10 82 -4 131 -10 131 -14 0 -8 242 -20 595 -31 195
-6 380 -14 410 -18 l55 -9 -50 -1 c-71 -2 -126 -12 -119 -22 3 -5 0 -9 -5 -9
-6 0 -11 5 -11 10 0 6 -7 10 -16 10 -8 0 -12 -4 -9 -10 3 -5 -1 -11 -9 -11 -9
-1 -22 -2 -28 -4 -7 -1 -23 4 -35 12 -13 7 -23 10 -23 5 0 -13 -34 -11 -42 2
-5 8 -8 7 -8 -1 0 -20 -99 -17 -122 4 -11 9 -18 11 -18 5 0 -7 5 -12 12 -12 6
0 8 -3 5 -6 -4 -4 -13 -1 -21 5 -11 9 -16 9 -21 0 -6 -8 -10 -7 -16 2 -7 11
-11 11 -17 2 -6 -10 -55 -12 -188 -11 -98 0 -361 0 -584 0 -826 -3 -1373 62
-1746 209 -140 55 -325 157 -435 239 -42 31 -116 81 -165 110 -49 29 -102 63
-119 75 -26 18 -94 46 -323 134 -54 20 -175 122 -229 193 -184 241 -276 512
-303 898 -14 207 -15 784 -1 1965 16 1347 26 1727 50 1981 27 275 63 512 101
649 19 70 30 134 30 177 0 76 17 149 61 263 84 217 124 375 111 440 -6 31 -38
58 -93 79 -59 21 -83 48 -83 90 0 76 67 126 253 187 259 86 352 150 402 279
16 41 29 80 29 86 0 6 -28 21 -62 33 -97 34 -109 41 -63 35 61 -8 91 17 125
103 16 40 31 85 34 100 2 16 5 30 6 33 1 3 2 8 1 13 0 4 3 7 7 7 4 0 8 10 9
23 1 12 10 57 21 100 10 42 17 77 14 77 -2 0 1 7 8 15 7 9 10 18 7 21 -3 3 3
35 14 72 10 37 20 78 21 92 2 14 7 31 12 38 4 7 6 16 3 19 -3 3 -1 17 5 32 6
14 12 35 14 46 2 11 9 45 17 75 15 61 17 69 18 73 2 6 8 35 13 66 4 19 11 41
15 50 5 9 10 19 10 23 1 4 3 13 5 20 5 15 15 64 21 97 2 13 8 35 14 50 6 14
17 53 25 86 8 33 24 92 36 130 12 39 24 80 27 93 3 12 9 22 13 22 4 0 8 11 8
24 0 13 7 39 16 56 9 18 16 41 16 51 0 10 4 20 9 23 5 3 12 23 16 43 8 43 77
193 109 238 12 17 32 49 44 73 l22 44 -46 74 c-25 41 -49 76 -53 78 -4 3 -13
-10 -19 -27z m-3627 -2027 c95 -46 174 -119 277 -256 7 -10 -143 -245 -335
-529 -19 -27 -115 -182 -137 -220 -10 -16 -75 -127 -145 -245 -70 -118 -145
-249 -167 -290 -22 -41 -48 -86 -58 -100 -9 -14 -41 -70 -70 -125 -28 -55 -55
-104 -59 -110 -5 -5 -34 -59 -66 -120 -32 -60 -61 -114 -65 -120 -10 -15 -66
-118 -215 -400 -18 -33 -62 -118 -100 -190 -107 -206 -110 -210 -117 -213 -5
-2 -8 -9 -8 -16 0 -6 -24 -59 -54 -116 -30 -58 -72 -141 -95 -185 -22 -44 -45
-85 -51 -92 -5 -7 -10 -17 -10 -22 0 -6 -20 -49 -45 -97 -24 -48 -49 -102 -55
-120 -6 -18 -22 -49 -36 -69 -13 -20 -21 -41 -18 -47 4 -7 2 -8 -4 -4 -6 3
-16 -3 -22 -14 -6 -11 -17 -20 -25 -20 -7 0 -15 -5 -17 -11 -5 -15 -58 7 -58
25 0 7 -7 19 -15 26 -8 7 -12 16 -9 21 3 5 1 9 -4 9 -12 0 -30 125 -26 195 3
86 13 155 27 195 6 19 12 40 13 45 3 42 95 305 106 305 4 0 8 7 8 16 0 16 6
30 65 159 17 39 47 104 66 145 19 41 40 81 47 88 6 7 12 19 12 26 0 7 15 44
34 82 63 127 106 222 106 233 0 6 5 11 10 11 6 0 10 7 10 15 0 9 11 37 25 63
14 26 25 53 25 59 0 7 5 13 10 13 6 0 10 5 10 12 0 17 92 212 102 216 4 2 8
10 8 17 0 7 7 26 15 42 8 15 49 100 91 188 119 252 238 490 247 493 4 2 5 8 1
13 -3 5 0 9 5 9 6 0 11 6 11 14 0 17 94 209 122 249 11 15 16 27 12 27 -4 0
-1 8 7 18 8 9 23 35 34 57 11 22 22 42 25 45 3 3 16 28 30 55 13 28 27 52 30
55 3 3 11 16 18 30 29 56 45 85 51 90 4 3 18 27 31 53 14 26 32 56 40 65 9 9
28 38 43 64 40 69 122 169 165 200 43 32 59 31 147 -12z m991 -686 c-4 -9 -9
-15 -11 -12 -3 3 -3 13 1 22 4 9 9 15 11 12 3 -3 3 -13 -1 -22z m-51 -124
c-21 -50 -40 -89 -42 -86 -2 2 13 45 33 95 21 50 40 89 42 86 3 -2 -12 -45
-33 -95z m-54 -127 c-8 -15 -10 -15 -11 -2 0 17 10 32 18 25 2 -3 -1 -13 -7
-23z m-20 -50 c-12 -20 -14 -14 -5 12 4 9 9 14 11 11 3 -2 0 -13 -6 -23z m-30
-80 c-8 -15 -10 -15 -11 -2 0 17 10 32 18 25 2 -3 -1 -13 -7 -23z m403 -39
c13 -5 13 -8 1 -20 -18 -18 -31 -18 -16 0 9 11 9 15 -1 19 -7 3 -10 6 -6 6 3
1 13 -2 22 -5z m44 -19 c-3 -3 -9 2 -12 12 -6 14 -5 15 5 6 7 -7 10 -15 7 -18z
m-37 -42 c0 -11 3 -13 6 -5 8 21 19 13 21 -15 1 -16 -2 -23 -6 -17 -5 8 -13 4
-25 -11 -12 -17 -14 -26 -5 -31 6 -4 8 -3 4 4 -3 6 -2 13 3 16 5 4 8 -2 6 -11
-2 -10 -4 -26 -4 -37 -1 -12 -6 -16 -16 -12 -8 3 -15 1 -15 -5 0 -5 6 -12 14
-15 12 -4 12 -12 4 -37 -6 -18 -15 -37 -20 -44 -5 -7 -7 -17 -3 -23 3 -5 2
-10 -3 -10 -5 0 -8 -12 -7 -27 1 -16 -4 -40 -12 -55 -7 -15 -14 -31 -14 -35
-1 -5 -5 -16 -11 -27 -7 -13 -7 -16 1 -12 7 5 9 1 5 -8 -3 -9 -11 -16 -17 -16
-6 0 -7 -3 -4 -7 4 -3 2 -12 -4 -20 -9 -10 -8 -13 2 -13 9 0 10 -3 3 -8 -18
-12 -43 -71 -33 -78 5 -3 5 -12 -1 -23 -5 -10 -6 -22 -2 -26 4 -5 1 -5 -5 -1
-11 6 -18 -10 -12 -26 0 -2 -11 -33 -25 -70 -14 -38 -23 -68 -19 -68 3 0 0 -7
-7 -15 -7 -8 -14 -29 -16 -45 -2 -17 -9 -41 -16 -53 -7 -12 -11 -28 -10 -34 2
-7 -1 -13 -5 -13 -5 0 -10 -11 -11 -26 -1 -14 -6 -34 -12 -44 -5 -10 -10 -29
-10 -42 0 -13 -7 -33 -15 -45 -15 -21 -57 -143 -49 -143 2 0 -7 -24 -19 -52
-13 -29 -22 -59 -20 -65 3 -7 0 -13 -5 -13 -5 0 -13 -17 -17 -37 -5 -21 -10
-42 -11 -48 -2 -5 -11 -37 -20 -70 -9 -33 -20 -64 -24 -70 -4 -5 -11 -29 -15
-52 -4 -24 -10 -43 -14 -43 -4 0 -7 -18 -8 -40 -1 -21 -7 -49 -13 -61 -7 -12
-13 -31 -15 -43 -2 -20 -25 -118 -66 -281 -11 -44 -26 -105 -34 -135 -42 -174
-137 -457 -195 -585 -40 -88 -111 -235 -124 -255 -8 -14 -32 -56 -53 -93 -21
-38 -45 -79 -53 -91 -8 -12 -29 -45 -47 -72 -29 -45 -75 -94 -89 -94 -3 0 -12
-7 -21 -15 -19 -20 -39 -14 -36 11 1 10 -6 23 -14 29 -30 22 -4 325 48 565 34
157 104 406 157 555 63 177 74 206 167 420 7 17 30 68 50 115 20 47 48 109 61
139 13 29 24 62 24 72 0 11 5 19 12 19 6 0 8 3 5 6 -3 4 0 16 8 28 8 11 15 26
15 34 0 7 9 32 20 54 11 23 20 48 20 55 0 7 4 13 10 13 5 0 9 3 9 8 -1 4 0 10
1 15 1 4 3 10 4 15 1 7 18 50 40 105 6 15 15 27 20 27 4 0 6 7 3 15 -4 8 -2
17 4 20 5 4 7 11 4 16 -4 5 -1 9 5 9 7 0 9 7 6 16 -3 9 -2 12 4 9 8 -5 21 31
23 62 0 5 6 13 13 18 7 6 16 26 19 45 3 19 10 39 15 45 4 5 8 12 7 15 0 3 11
28 25 55 29 58 27 54 34 83 4 12 10 22 14 22 8 0 24 57 21 78 -1 6 5 12 14 12
8 0 14 3 14 8 -4 24 2 42 13 36 7 -5 9 -2 5 8 -3 9 1 27 8 42 8 15 14 28 13
29 -4 8 15 47 23 47 5 0 9 8 9 19 0 10 9 30 20 44 11 14 20 32 20 41 0 9 4 16
10 16 5 0 7 6 4 14 -3 7 2 21 11 30 9 9 13 16 8 16 -4 0 -1 6 9 13 9 7 18 24
20 37 1 14 12 30 23 37 13 8 15 12 6 13 -12 0 -11 3 1 18 9 9 19 27 23 40 3
12 10 20 14 17 7 -3 43 63 47 85 3 20 18 39 27 33 6 -4 3 -11 -8 -20 -11 -7
-14 -13 -8 -13 7 0 15 5 18 10 4 6 11 7 17 4 7 -4 8 -2 4 4 -8 14 0 32 15 32
5 0 9 -8 10 -17z m-460 -30 c-12 -20 -14 -14 -5 12 4 9 9 14 11 11 3 -2 0 -13
-6 -23z m-20 -50 c-12 -20 -14 -14 -5 12 4 9 9 14 11 11 3 -2 0 -13 -6 -23z
m-221 -609 c-402 -1176 -619 -1864 -784 -2484 -40 -150 -77 -275 -82 -277 -15
-5 -191 275 -260 412 -73 147 -110 273 -100 342 14 106 166 376 796 1413 363
597 494 809 498 805 2 -2 -29 -97 -68 -211z m1851 109 c-12 -20 -14 -14 -5 12
4 9 9 14 11 11 3 -2 0 -13 -6 -23z m5351 -6565 c82 -2 148 -5 148 -8 0 -4 -6
-12 -12 -20 -11 -12 -10 -12 3 -2 9 7 25 9 34 5 13 -4 16 -3 10 6 -6 10 -3 11
13 2 25 -14 43 -14 22 -1 -13 8 -12 10 3 10 9 0 17 -4 17 -10 0 -13 47 -13 52
-1 2 6 19 13 38 17 41 7 2956 14 3014 6 l39 -5 -64 -34 c-35 -18 -71 -35 -79
-39 -13 -4 -15 -35 -11 -222 5 -287 -14 -686 -45 -954 -20 -173 -34 -249 -68
-371 -39 -140 -48 -161 -105 -246 -62 -92 -63 -93 -154 -136 l-92 -44 -125 15
c-124 16 -124 16 -290 99 -145 73 -187 100 -340 220 -96 75 -195 156 -220 179
-25 23 -61 54 -80 68 -306 229 -460 380 -655 639 -11 15 -54 71 -96 125 -87
115 -334 472 -351 509 -10 21 -8 29 10 48 12 13 22 26 22 30 0 4 -30 7 -67 7
-38 0 -102 5 -143 10 -41 6 -127 15 -190 20 -165 14 -214 21 -224 31 -6 5 2
10 20 11 16 0 36 2 44 3 8 1 20 -2 26 -7 6 -4 11 -2 11 7 0 19 -144 16 -156
-4 -7 -11 -9 -11 -13 0 -3 10 -35 14 -119 17 -63 1 -118 3 -124 3 -5 1 -28 0
-50 -2 -22 -1 -56 2 -75 7 l-35 8 35 6 c19 4 89 5 155 4 66 -2 186 -4 267 -6z"/>
<path d="M15115 14328 c60 -45 77 -67 69 -91 -15 -48 -274 -386 -348 -455 -53
-49 -79 -52 -156 -22 -27 11 -50 17 -50 13 0 -4 24 -29 52 -55 85 -78 121 -75
212 16 37 37 211 243 261 309 86 114 134 168 158 179 31 15 37 29 8 21 -10 -2
-65 19 -127 51 -60 31 -95 46 -79 34z"/>
<path d="M20655 13936 c-207 -108 -702 -400 -753 -444 -21 -17 -20 -17 34 -80
l54 -63 16 38 c31 73 167 181 359 283 44 23 102 50 130 60 64 23 250 54 267
44 12 -7 -16 43 -56 100 -22 33 -27 25 54 87 65 49 13 37 -105 -25z"/>
<path d="M19796 13425 c-15 -11 -16 -15 -5 -15 8 0 24 7 35 15 14 11 15 14 4
14 -8 0 -24 -6 -34 -14z"/>
<path d="M14935 13173 c-15 -37 -36 -92 -46 -120 -17 -49 -17 -53 -1 -54 43
-2 81 -12 130 -34 29 -13 76 -28 106 -34 29 -5 80 -20 112 -32 32 -12 91 -27
129 -35 39 -7 104 -22 146 -33 78 -21 144 -29 154 -19 9 9 -14 60 -25 53 -5
-3 -10 -2 -10 2 0 5 -15 17 -32 27 -18 10 -58 43 -88 72 -32 30 -80 64 -113
79 -32 14 -99 53 -149 86 -84 57 -168 92 -254 106 -30 5 -32 3 -59 -64z"/>
<path d="M14885 12860 c3 -5 12 -7 20 -3 21 7 19 13 -6 13 -11 0 -18 -4 -14
-10z"/>
<path d="M21238 12769 c8 -129 -46 -269 -141 -367 -142 -148 -457 -274 -897
-361 -252 -50 -835 -138 -1165 -177 -40 -5 -41 -5 -41 -47 0 -23 -3 -49 -7
-58 -7 -14 6 -17 99 -22 59 -4 141 -7 183 -7 42 0 71 -4 65 -8 -5 -5 -54 -21
-109 -37 -205 -57 -508 -233 -621 -361 -144 -164 -249 -322 -430 -649 -58
-104 -120 -206 -136 -225 -33 -38 -28 -24 8 25 22 31 157 271 188 335 27 58 0
13 -92 -150 -90 -160 -166 -254 -213 -263 -23 -4 -23 -4 4 -6 31 -1 31 -1 13
-46 -13 -30 -13 -35 4 -50 21 -19 49 -14 73 13 8 9 42 71 75 137 77 154 194
324 352 511 69 81 147 175 174 208 169 210 322 351 469 431 99 54 138 68 372
128 88 23 397 68 570 84 42 4 74 14 105 33 30 19 64 30 102 34 31 3 72 13 90
23 18 9 35 18 38 18 11 2 56 17 75 25 11 4 40 13 65 20 25 7 69 23 98 36 29
13 57 24 62 24 6 0 18 4 28 9 9 6 51 26 92 46 250 123 394 276 446 476 18 67
22 255 7 270 -4 4 -6 -19 -5 -52z"/>
<path d="M18386 12023 c-3 -4 -6 -17 -6 -30 0 -15 6 -23 18 -23 18 0 42 18 42
30 0 10 -47 30 -54 23z"/>
<path d="M18939 11880 c-30 -64 -178 -284 -280 -415 -142 -184 -283 -392 -378
-557 -52 -93 -29 -67 32 35 115 192 236 354 430 574 189 215 250 317 230 386
l-9 32 -25 -55z"/>
<path d="M22346 8223 c54 -153 -43 -407 -219 -568 -118 -109 -286 -177 -391
-161 -35 6 -38 5 -26 -9 24 -29 130 -76 204 -91 136 -29 263 13 376 125 135
134 210 339 181 497 -13 68 -57 164 -98 212 -37 42 -44 41 -27 -5z"/>
<path d="M23745 8235 c4 -11 11 -46 17 -77 29 -165 -99 -425 -275 -555 -114
-84 -258 -133 -351 -118 l-41 7 41 -31 c23 -17 73 -43 110 -57 60 -22 81 -25
164 -22 127 5 187 33 291 137 204 204 237 514 73 696 -22 24 -33 32 -29 20z"/>
<path d="M25073 8214 c73 -143 -27 -421 -207 -581 -129 -113 -315 -182 -416
-154 l-35 10 30 -24 c80 -66 193 -100 309 -93 66 5 94 12 145 38 201 101 337
364 301 583 -14 84 -56 170 -107 218 l-35 34 15 -31z"/>
<path d="M15846 6529 c-8 -23 -61 -193 -111 -359 -99 -328 -200 -657 -254
-830 l-20 -64 22 -25 c23 -25 474 -453 690 -655 l127 -119 71 63 70 63 32 -29
c17 -16 34 -31 37 -34 3 -3 16 -15 30 -27 l25 -22 172 169 c162 158 269 251
303 262 11 3 -4 24 -52 75 -38 38 -68 74 -68 79 0 6 14 23 31 40 17 16 44 46
61 66 l30 38 -209 227 c-243 265 -689 761 -852 948 -63 72 -118 134 -122 139
-5 6 -10 3 -13 -5z"/>
<path d="M17510 4566 c-62 -22 -85 -45 -61 -61 6 -3 11 -17 11 -31 0 -35 -36
-68 -169 -153 -67 -43 -71 -48 -116 -143 -44 -90 -92 -148 -123 -148 -5 0 -30
16 -55 35 -25 19 -48 35 -51 35 -3 0 -2 -15 0 -32 3 -18 1 -44 -4 -58 -9 -24
-13 -25 -155 -36 -155 -12 -197 -26 -197 -64 0 -33 79 -101 204 -175 129 -76
202 -137 191 -156 -10 -15 78 -5 150 17 27 7 52 14 56 14 10 0 29 -57 29 -86
0 -28 -39 -41 -143 -51 -63 -6 -67 -7 -61 -27 4 -12 8 -23 10 -25 4 -4 81 7
185 26 25 5 27 2 33 -47 4 -29 5 -54 3 -57 -12 -12 -175 -29 -202 -22 -16 5
-30 9 -31 9 -1 0 -5 -28 -8 -62 -4 -35 -21 -119 -37 -188 -44 -181 -59 -279
-64 -415 -2 -66 -2 -111 1 -100 6 21 91 227 127 305 63 140 100 208 125 230 9
8 23 23 31 33 14 17 11 18 -62 11 -95 -8 -107 -1 -107 67 0 46 1 49 27 49 14
0 66 8 114 17 l88 17 6 45 c4 25 7 52 8 60 1 8 7 14 12 14 11 -2 14 -6 50 -83
32 -68 68 -93 150 -105 17 -3 46 -9 67 -13 44 -11 127 -6 145 9 7 7 13 8 13 4
0 -4 8 -1 17 6 15 12 16 12 8 -1 -8 -13 -6 -13 8 -1 9 7 14 18 11 25 -3 6 1 3
9 -7 13 -16 16 -17 24 -3 5 8 17 17 28 19 11 2 30 9 43 15 12 7 22 10 22 7 0
-3 10 1 22 9 15 11 26 12 39 5 15 -8 17 -6 12 7 -4 11 -2 15 4 11 21 -13 99
30 151 83 81 82 222 474 222 616 0 73 0 74 -130 180 -205 169 -323 258 -449
339 -92 59 -136 65 -231 31z"/>
<path d="M21556 3992 c-3 -5 1 -9 9 -9 8 0 12 4 9 9 -3 4 -7 8 -9 8 -2 0 -6
-4 -9 -8z"/>
<path d="M14222 3443 c19 -42 20 -59 15 -163 -3 -63 -11 -132 -17 -153 -6 -22
-10 -41 -8 -43 2 -2 21 22 41 53 25 38 37 67 37 92 0 20 5 43 10 51 7 11 10 5
10 -24 l0 -39 44 39 c24 22 45 41 45 44 1 7 -135 142 -171 170 l-27 21 21 -48z"/>
<path d="M13747 3090 c-3 -11 -1 -20 4 -20 5 0 9 9 9 20 0 11 -2 20 -4 20 -2
0 -6 -9 -9 -20z"/>
<path d="M13575 2820 c-3 -5 -1 -10 4 -10 6 0 11 5 11 10 0 6 -2 10 -4 10 -3
0 -8 -4 -11 -10z"/>
<path d="M13480 2750 c-19 -15 -21 -20 -9 -20 16 0 46 27 38 35 -2 2 -15 -5
-29 -15z"/>
<path d="M17090 2300 c-14 -4 -45 -8 -69 -9 l-44 -1 24 -26 c42 -45 71 -55
105 -38 30 16 46 37 51 67 3 19 -22 21 -67 7z"/>
</g>
</svg>
