<?xml version="1.0" standalone="no"?>
<!DOCTYPE svg PUBLIC "-//W3C//DTD SVG 20010904//EN"
 "http://www.w3.org/TR/2001/REC-SVG-20010904/DTD/svg10.dtd">
<svg version="1.0" xmlns="http://www.w3.org/2000/svg"
 width="4096.000000pt" height="2304.000000pt" viewBox="0 0 4096.000000 2304.000000"
 preserveAspectRatio="xMidYMid meet">

<g transform="translate(0.000000,2304.000000) scale(0.100000,-0.100000)"
fill="#000000" stroke="none">
<path d="M21070 21054 c-310 -37 -498 -122 -685 -309 -160 -159 -237 -302
-270 -503 -24 -145 -17 -576 14 -772 20 -130 67 -348 80 -368 3 -6 19 -8 35
-5 l29 6 -7 76 c-19 245 -28 415 -23 478 9 117 60 208 148 263 104 63 217 86
479 95 139 5 226 11 270 20 66 13 578 95 626 100 121 13 278 -36 309 -96 21
-40 15 -110 -16 -200 -12 -36 -19 -76 -17 -100 4 -49 -11 -51 -49 -5 -55 67
-161 103 -253 86 -44 -8 -80 -38 -80 -66 0 -30 51 -66 165 -115 220 -96 226
-103 249 -271 14 -112 15 -131 1 -208 -9 -47 -20 -93 -25 -102 -6 -10 -10 -34
-10 -53 0 -60 -47 -142 -105 -185 -11 -8 -27 -27 -35 -42 -16 -28 -71 -95
-136 -164 -22 -23 -57 -63 -78 -90 -124 -154 -367 -298 -601 -354 -97 -24
-250 -26 -320 -5 -27 8 -51 13 -53 11 -4 -5 115 -79 156 -97 17 -8 32 -21 32
-30 0 -35 22 -40 370 -79 306 -34 368 -52 398 -113 20 -41 39 -168 41 -284 l1
-33 40 28 40 27 -6 77 c-3 43 -6 152 -6 243 0 139 -3 165 -15 161 -82 -32
-390 -75 -376 -53 2 4 11 7 19 7 9 0 25 5 37 12 12 7 27 13 34 14 25 4 194
107 222 135 16 16 34 29 40 29 5 0 18 11 29 25 11 14 23 25 26 25 12 0 45 34
40 42 -3 4 1 8 9 8 8 0 22 10 30 23 8 12 31 40 51 62 19 22 52 72 72 110 20
39 46 82 56 98 11 15 16 27 13 27 -4 0 3 12 14 26 12 15 21 30 21 35 0 4 11
24 24 44 40 58 70 163 81 280 13 137 14 208 6 246 -9 44 -15 88 -26 204 -4 33
-8 76 -11 95 -3 19 -7 58 -10 85 -3 28 -8 70 -13 95 -4 25 -5 56 -1 69 3 13 2
56 -1 95 -4 39 -5 73 -3 75 6 7 43 -43 64 -87 32 -66 47 -140 71 -337 26 -222
33 -341 34 -562 l0 -172 30 6 c49 9 109 41 141 75 l29 32 -34 -27 c-18 -16
-39 -26 -45 -24 -7 2 -13 47 -17 118 -7 121 -22 214 -39 235 -7 7 -8 30 -3 61
14 89 7 411 -11 533 -52 345 -150 679 -235 804 -120 173 -378 337 -617 391
-67 16 -367 28 -444 19z m-255 -525 c4 -5 -7 -9 -24 -9 -39 0 -49 17 -11 18
16 0 32 -4 35 -9z"/>
<path d="M20652 19699 c-100 -39 -161 -123 -115 -160 59 -50 293 46 293 120 0
60 -80 77 -178 40z"/>
<path d="M21800 19437 c-21 -11 -24 -19 -22 -49 2 -26 -1 -39 -13 -45 -40 -23
28 -113 85 -113 20 0 36 10 54 33 15 17 31 38 37 44 14 19 -6 84 -34 111 -30
28 -75 36 -107 19z"/>
<path d="M20673 19315 c-27 -19 -46 -77 -38 -115 11 -51 42 -80 84 -80 91 0
130 119 64 192 -20 22 -81 24 -110 3z m93 -31 c8 -31 -7 -48 -34 -39 -22 6
-37 38 -27 55 3 5 17 10 30 10 18 0 26 -7 31 -26z"/>
<path d="M21430 18981 c0 -15 -60 -69 -91 -81 -42 -18 -36 -34 9 -26 44 8 92
55 92 91 0 14 -2 25 -5 25 -3 0 -5 -4 -5 -9z"/>
<path d="M21560 18621 c-74 -74 -82 -103 -18 -60 49 33 100 95 96 116 -3 14
-21 1 -78 -56z"/>
<path d="M20298 18633 c7 -3 16 -2 19 1 4 3 -2 6 -13 5 -11 0 -14 -3 -6 -6z"/>
<path d="M21837 17798 c4 -112 3 -157 -6 -162 -28 -18 -6 -21 49 -8 55 14 66
13 145 -5 l86 -20 26 34 c14 19 46 73 69 120 44 88 79 123 122 123 31 0 28 16
-5 25 -43 11 -255 34 -379 41 l-113 7 6 -155z"/>
<path d="M20576 17752 c15 -26 15 -33 1 -81 l-15 -52 48 -72 c27 -39 60 -85
74 -102 23 -26 22 -22 -9 36 -19 36 -35 73 -35 81 0 9 17 23 39 31 49 20 55
29 33 53 -9 10 -30 37 -46 59 -36 50 -66 74 -89 75 -17 0 -17 -1 -1 -28z"/>
<path d="M22653 17461 c-73 -57 -112 -107 -251 -316 -159 -239 -218 -304 -300
-329 -22 -7 -22 -7 3 20 14 15 24 29 22 30 -7 7 -80 -21 -84 -33 -10 -25 -54
-13 -168 47 -142 74 -180 82 -221 46 -28 -25 -28 -26 -4 -17 64 22 168 -13
332 -112 136 -83 178 -100 240 -100 98 0 169 60 339 288 91 121 126 174 159
239 30 59 94 127 138 147 l31 14 -59 37 c-32 21 -61 47 -65 58 -10 33 -56 25
-112 -19z"/>
<path d="M20000 17480 c0 -5 13 -24 28 -41 21 -23 38 -32 65 -34 20 -1 37 -1
37 -1 0 1 -21 18 -47 37 -53 39 -83 54 -83 39z"/>
<path d="M20958 16881 c-113 -73 -177 -108 -155 -83 18 19 18 20 -40 4 -32 -9
-63 -23 -69 -31 -8 -10 -20 -12 -40 -7 l-29 7 30 -19 c62 -38 90 -44 136 -32
76 20 132 63 257 196 29 31 -17 13 -90 -35z"/>
<path d="M21283 16820 c41 -95 44 -100 67 -100 47 0 35 29 -49 120 l-50 55 32
-75z"/>
<path d="M21567 16860 c-14 -11 -40 -39 -58 -63 -28 -37 -25 -34 29 18 34 33
62 61 62 62 0 7 -9 2 -33 -17z"/>
<path d="M23518 16487 c4 -153 -10 -467 -38 -867 -22 -320 -10 -782 34 -1255
14 -153 18 -168 79 -345 168 -484 269 -699 439 -936 69 -97 278 -318 228 -241
-50 76 -78 149 -131 341 -74 267 -75 269 -99 426 -26 163 -87 425 -140 600 -5
19 -17 80 -25 134 -14 91 -14 101 1 117 23 26 104 46 214 54 52 4 106 8 120
11 78 12 139 8 159 -10 12 -11 21 -25 21 -32 0 -19 128 -397 171 -507 39 -98
86 -197 93 -197 2 0 -9 34 -26 76 -83 214 -218 721 -218 819 0 24 -4 46 -9 50
-5 3 -45 -6 -88 -19 -176 -55 -478 -126 -537 -126 -22 0 -36 5 -37 13 -1 19
-29 135 -68 277 -63 233 -80 447 -96 1220 -6 243 -11 340 -20 368 -3 7 -7 47
-11 90 -12 141 -19 114 -16 -61z"/>
<path d="M23332 16540 c8 -22 -9 -60 -27 -60 -8 0 -14 -3 -14 -7 1 -5 0 -10
-1 -13 -1 -3 -3 -12 -5 -20 -2 -8 -6 -28 -10 -45 -3 -16 -7 -36 -7 -42 -1 -7
-5 -13 -10 -13 -5 0 -7 -4 -4 -9 4 -5 2 -21 -3 -35 -6 -14 -12 -42 -15 -63 -3
-21 -8 -49 -12 -63 -3 -14 -7 -145 -9 -292 -2 -210 0 -272 11 -292 7 -15 10
-25 6 -22 -4 2 -7 -8 -6 -22 1 -34 27 -36 30 -2 1 14 5 43 9 64 5 25 4 37 -2
33 -5 -3 -10 0 -10 8 0 8 5 15 10 15 5 0 3 8 -4 17 -10 11 -10 14 -1 9 9 -5
13 4 14 36 2 46 5 82 12 136 2 19 -1 32 -8 32 -8 0 -8 2 0 8 15 9 24 64 29
172 2 47 5 85 6 85 0 0 2 14 4 30 9 105 21 180 30 195 3 6 1 10 -4 10 -6 0
-11 5 -11 11 0 5 5 7 11 3 8 -5 10 3 7 25 -3 18 -1 34 4 37 4 3 3 15 -3 26 -7
13 -8 23 -1 27 6 4 3 12 -6 21 -14 13 -15 13 -10 0z"/>
<path d="M23237 15493 c-6 -11 -2 -51 5 -59 4 -3 5 -11 4 -17 -2 -7 -1 -9 1
-4 3 4 10 4 16 0 7 -3 4 3 -6 14 -9 11 -15 22 -12 25 10 10 14 48 5 48 -5 0
-11 -3 -13 -7z"/>
<path d="M19366 15059 c-33 -79 -92 -229 -131 -333 -39 -103 -78 -192 -86
-196 -36 -20 -389 57 -628 136 -73 25 -135 43 -138 41 -2 -3 22 -14 54 -25 32
-11 96 -35 143 -52 47 -17 104 -38 126 -46 99 -34 229 -93 260 -118 24 -19 34
-35 34 -54 0 -56 -235 -728 -315 -898 -143 -307 -345 -484 -830 -727 -260
-130 -675 -307 -720 -307 -13 0 -38 12 -56 28 -28 23 -32 24 -25 7 4 -11 11
-46 15 -77 4 -32 10 -60 14 -64 9 -9 269 93 275 109 2 4 7 5 12 2 10 -6 58 13
83 33 9 9 17 12 17 8 0 -3 13 0 29 8 16 9 32 12 35 8 4 -3 10 -2 14 4 4 6 39
25 77 43 71 32 174 81 275 130 30 14 57 29 58 34 2 4 12 7 23 7 10 0 19 5 19
11 0 5 5 7 10 4 6 -3 10 -1 10 4 0 6 5 11 11 11 14 0 162 89 170 103 4 5 14 7
23 4 9 -4 16 -2 16 3 0 12 52 60 60 55 4 -2 20 8 36 23 16 15 33 28 37 29 8 3
62 51 116 103 40 38 141 165 141 176 0 4 6 15 14 23 22 24 109 194 156 301 22
52 45 104 50 115 5 11 50 130 101 265 50 135 95 250 98 255 4 6 18 35 31 65
12 30 39 80 60 110 20 30 39 63 43 73 5 13 18 17 60 17 l54 0 27 62 c27 60 33
92 66 343 6 44 18 115 26 158 29 147 14 143 -50 -14z"/>
<path d="M25618 13573 c-21 -5 -24 -43 -4 -43 8 0 21 -3 30 -6 13 -5 16 1 16
25 0 31 -5 34 -42 24z"/>
<path d="M26028 13562 c-54 -3 -57 -4 -63 -33 -4 -17 -5 -32 -2 -35 2 -2 34
-7 71 -11 l66 -6 0 41 c0 22 -3 42 -7 44 -5 2 -34 2 -65 0z"/>
<path d="M26127 13513 c-4 -3 -7 -12 -7 -20 0 -9 14 -13 48 -12 27 1 36 4 22
6 -14 3 -32 11 -41 19 -9 8 -19 11 -22 7z"/>
<path d="M26445 13466 c-130 -11 -130 -11 -128 -36 7 -109 10 -138 17 -148 5
-8 0 -12 -13 -12 -38 0 -48 -23 -47 -116 l1 -89 137 -3 c76 -1 159 1 185 5
l48 8 3 98 c3 93 2 98 -20 107 -22 8 -21 9 7 10 40 1 75 10 75 21 0 4 -18 13
-39 19 -38 10 -40 13 -51 68 -17 80 -18 82 -32 80 -7 0 -71 -6 -143 -12z m148
-193 c-7 -2 -21 -2 -30 0 -10 3 -4 5 12 5 17 0 24 -2 18 -5z"/>
<path d="M23395 13217 c-11 -13 -49 -35 -85 -48 l-65 -23 -1750 -1 c-962 0
-1801 -4 -1862 -9 -130 -10 -124 -3 -94 -120 l18 -70 -37 -120 c-67 -214 -155
-550 -204 -781 -158 -741 -268 -1293 -461 -2320 -184 -973 -201 -1070 -234
-1335 -122 -973 43 -1725 784 -3570 169 -420 455 -1112 481 -1161 33 -64 104
-110 201 -130 l62 -13 36 -95 37 -96 -24 -14 c-12 -8 -56 -48 -96 -88 l-74
-74 7 -72 c3 -40 13 -126 22 -192 17 -135 13 -232 -13 -315 -10 -30 -66 -149
-125 -265 -122 -240 -214 -464 -235 -572 -21 -110 -19 -220 5 -260 30 -48 145
-101 251 -114 195 -25 442 21 625 115 197 101 428 325 622 603 l50 72 7 -62
c17 -164 18 -214 6 -294 -13 -81 -12 -86 9 -130 12 -25 25 -43 28 -39 9 9 12
142 12 451 -1 327 -2 345 -11 338 -5 -2 -9 16 -9 41 -1 25 -2 49 -3 54 -8 26
-20 109 -17 116 1 6 -2 19 -8 30 -5 12 -31 74 -56 138 -64 163 -74 311 -25
370 19 23 19 23 35 3 l17 -20 -7 20 c-4 11 -11 32 -15 46 -35 117 -111 177
-249 195 -55 7 -58 4 -40 -43 6 -15 19 -57 30 -91 20 -69 17 -70 -37 -18 -18
19 -74 125 -74 141 0 4 -6 21 -14 38 -26 58 -56 166 -62 220 -5 50 -4 54 41
107 54 65 80 111 95 172 11 43 6 65 -158 624 -234 796 -307 1055 -411 1464
-211 828 -286 1343 -252 1720 28 307 74 505 308 1330 99 353 419 1496 498
1785 26 94 103 375 172 625 69 250 130 472 135 493 8 27 14 35 22 27 7 -5 80
-12 163 -16 l150 -7 6 -266 c4 -146 6 -1112 6 -2146 -2 -1971 -7 -2287 -59
-3815 -6 -157 -17 -490 -25 -740 -17 -516 -31 -941 -45 -1302 -5 -137 -7 -254
-4 -261 7 -19 60 -48 123 -67 42 -13 57 -23 59 -38 4 -24 -3 -22 157 -56 66
-15 142 -33 169 -41 26 -8 58 -15 70 -15 33 -1 103 -36 116 -60 15 -29 9 -210
-7 -210 -18 0 -62 -63 -84 -120 -32 -85 -22 -214 26 -313 38 -79 50 -90 102
-98 27 -3 62 -10 79 -14 l32 -7 1 224 2 224 -37 48 -37 48 6 147 c5 152 17
207 45 215 10 2 49 12 89 21 39 9 79 25 87 34 12 13 21 74 36 247 34 383 58
662 90 1029 17 193 42 478 56 635 224 2553 232 2632 454 4275 248 1841 301
2329 299 2795 -1 118 -4 225 -7 238 -7 22 -9 21 -39 -19 -43 -55 -42 -44 1 23
72 114 139 266 171 393 18 71 23 80 45 83 36 5 47 20 19 26 -55 13 -200 26
-283 26 -49 0 -87 3 -84 6 3 3 50 8 104 10 107 6 138 18 155 61 14 38 7 48
-16 20z m-3102 -408 c28 -7 37 -15 38 -32 2 -26 2 -23 -21 -107 -27 -97 -68
-252 -74 -280 -3 -14 -17 -65 -32 -115 -14 -49 -30 -108 -34 -130 -17 -81 -21
-99 -31 -117 -6 -11 -9 -22 -6 -24 2 -3 -5 -35 -15 -72 -11 -37 -21 -76 -23
-87 -2 -11 -10 -47 -18 -80 -9 -33 -19 -73 -23 -90 -4 -16 -8 -35 -9 -40 -2
-6 -12 -49 -23 -95 -12 -47 -39 -161 -62 -255 -22 -93 -44 -186 -49 -205 -5
-19 -27 -116 -50 -215 -24 -99 -47 -196 -53 -215 -6 -19 -12 -44 -14 -56 -2
-19 -32 -151 -54 -234 -13 -52 -47 -196 -65 -275 -9 -38 -19 -81 -22 -95 -4
-14 -8 -29 -8 -35 -2 -10 -6 -29 -32 -130 -8 -33 -16 -69 -18 -80 -2 -11 -8
-40 -15 -65 -7 -25 -13 -49 -14 -55 -10 -46 -20 -92 -37 -165 -11 -47 -27
-112 -34 -145 -28 -121 -67 -282 -91 -370 -13 -49 -39 -153 -59 -230 -19 -77
-38 -147 -42 -155 -3 -8 -7 -17 -8 -20 -8 -25 -29 -97 -31 -105 -1 -5 -9 -27
-18 -47 -9 -21 -15 -39 -14 -40 5 -7 -67 -130 -91 -157 -36 -40 -81 -42 -105
-6 -9 13 -16 31 -16 40 0 8 -4 15 -8 15 -4 0 -9 10 -10 23 -1 12 -6 49 -11 82
-17 108 -13 246 14 475 2 19 11 100 20 180 26 241 27 250 61 430 14 74 43 207
64 295 43 178 55 255 70 460 10 135 41 353 60 425 6 19 37 177 70 350 33 173
63 324 66 335 3 11 7 36 10 55 3 19 12 64 20 100 8 36 19 83 24 105 5 22 12
58 16 80 4 22 9 45 10 50 2 6 6 26 9 45 3 19 8 42 11 50 3 8 8 33 10 55 3 22
9 54 14 70 5 17 11 41 14 55 2 14 7 36 10 50 3 14 8 36 11 50 2 14 9 43 15 65
6 22 13 51 14 65 2 14 11 57 20 95 67 294 84 362 112 448 13 40 20 47 42 48
45 1 194 18 242 28 64 12 228 13 273 0z m1877 -394 c0 -8 -8 -23 -18 -33 -10
-10 -26 -29 -35 -42 -18 -26 -73 -33 -87 -10 -9 15 10 33 80 73 53 30 60 32
60 12z m-60 -109 c0 -2 -9 -6 -20 -9 -11 -3 -18 -1 -14 4 5 9 34 13 34 5z
m-1446 -9418 c4 -21 2 -39 -4 -43 -6 -4 -10 4 -10 18 0 14 -3 40 -6 58 -4 23
-2 29 4 19 5 -8 12 -32 16 -52z m-364 -214 c74 -13 172 -27 218 -31 l83 -6 -6
-51 c-4 -28 -9 -55 -12 -59 -9 -15 -394 43 -450 68 -30 13 -33 19 -33 58 0 52
6 60 40 52 14 -4 86 -18 160 -31z m43 -171 l229 -37 -7 -46 c-4 -25 -10 -49
-14 -53 -7 -7 -82 5 -414 63 -39 7 -71 18 -74 26 -8 22 17 84 35 84 9 0 120
-16 245 -37z m-135 -138 c217 -38 306 -56 316 -65 5 -5 -2 -28 -16 -52 -23
-42 -25 -43 -68 -40 -25 1 -76 9 -115 17 -38 8 -128 22 -198 32 -105 14 -130
15 -136 4 -6 -9 -11 -10 -15 -2 -4 6 -3 11 2 11 5 0 12 17 15 38 8 44 32 82
53 82 8 0 81 -11 162 -25z"/>
<path d="M26580 12853 l-25 -15 25 6 c14 3 28 6 33 6 4 0 7 5 7 10 0 13 -9 11
-40 -7z"/>
<path d="M26404 12813 c-6 -5 -14 -35 -18 -68 -4 -33 -16 -107 -27 -163 -11
-57 -19 -106 -17 -108 3 -2 18 -6 34 -10 l29 -6 28 164 c16 90 29 170 30 178
2 16 -40 25 -59 13z"/>
<path d="M26616 12708 c-11 -17 -15 -60 -18 -160 -3 -133 -3 -136 17 -126 11
6 39 30 62 55 23 25 48 43 55 41 23 -7 58 -90 58 -138 0 -70 -15 -84 -82 -77
-30 4 -84 17 -119 30 -106 40 -140 18 -206 -133 -14 -30 -35 -77 -48 -105 -13
-27 -35 -76 -49 -108 -14 -32 -35 -72 -47 -88 -18 -26 -26 -30 -51 -25 -38 8
-27 -10 18 -29 19 -8 74 -53 121 -99 48 -47 89 -83 91 -81 3 2 -3 22 -12 45
-20 50 -20 79 -1 86 8 4 15 12 15 19 0 17 35 56 44 48 3 -3 6 0 6 8 0 17 66
80 74 71 3 -3 8 3 12 12 3 9 10 13 15 10 5 -3 9 0 9 7 0 7 3 10 6 7 3 -3 17 5
31 18 14 13 29 21 34 18 5 -3 12 2 15 10 3 8 15 18 26 22 11 3 17 8 15 11 -3
3 17 28 45 56 62 64 68 80 68 170 0 205 -84 436 -162 445 -19 2 -31 -3 -42
-20z"/>
<path d="M17020 12482 c0 -27 -70 -132 -110 -166 -19 -15 -62 -42 -97 -59 -83
-41 -86 -54 -13 -62 65 -7 90 3 144 60 56 59 123 245 87 245 -6 0 -11 -8 -11
-18z"/>
<path d="M16650 11953 c-34 -102 -98 -200 -155 -234 -20 -13 -25 -19 -13 -19
27 0 91 63 120 117 32 58 72 163 65 169 -3 3 -11 -12 -17 -33z"/>
<path d="M16155 11866 c-138 -44 -191 -113 -260 -337 -30 -96 -60 -135 -123
-156 l-37 -13 49 5 c57 6 81 24 107 80 22 47 25 34 5 -22 -7 -21 -15 -74 -17
-117 -5 -90 7 -108 58 -91 41 14 67 75 129 301 30 108 62 207 71 220 34 52
141 77 169 40 24 -34 37 -184 31 -366 -7 -172 -26 -342 -66 -590 -29 -176 -27
-287 8 -467 62 -308 245 -1135 436 -1963 13 -58 40 -177 60 -265 85 -378 166
-735 295 -1292 33 -145 74 -325 90 -400 17 -76 44 -194 60 -263 27 -116 62
-268 191 -835 27 -121 56 -247 64 -280 8 -33 51 -220 95 -415 45 -195 99 -431
120 -525 22 -93 82 -359 135 -590 200 -871 307 -1335 347 -1490 58 -227 59
-291 6 -324 -26 -16 -70 12 -141 89 -72 77 -87 120 -142 397 -78 389 -127 563
-173 605 -15 15 -47 37 -72 51 -52 29 -58 44 -115 292 -33 142 -73 312 -121
515 -22 93 -65 233 -74 245 -5 6 -25 51 -45 101 -38 96 -64 134 -93 134 -45 0
-653 -183 -680 -205 -1 -1 11 -31 27 -66 28 -59 101 -294 101 -323 0 -8 29
-17 77 -24 42 -7 113 -27 157 -45 l81 -32 70 17 c39 10 86 21 106 24 l36 5 17
-66 c9 -36 23 -97 31 -135 10 -47 26 -85 50 -118 116 -162 152 -368 99 -564
-17 -65 -17 -67 4 -149 42 -157 62 -186 264 -384 529 -521 919 -866 1028 -912
27 -12 42 -13 72 -4 49 15 54 26 25 60 -13 16 -28 41 -34 57 -42 118 -58 204
-37 204 7 0 40 -28 73 -62 34 -34 61 -56 61 -50 0 17 -167 198 -381 412 l-195
195 -18 85 c-16 75 -164 732 -248 1095 -46 202 -78 344 -92 410 -8 33 -34 150
-59 260 -25 110 -71 310 -101 445 -31 135 -71 315 -91 400 -19 85 -46 205 -60
265 -13 61 -36 160 -50 220 -26 114 -70 306 -87 385 -20 93 -26 119 -67 295
-24 99 -46 198 -51 220 -6 34 -210 927 -326 1430 -19 83 -38 168 -43 190 -5
22 -71 310 -146 640 -76 330 -141 618 -146 640 -4 22 -31 139 -58 260 -81 352
-238 1058 -266 1200 -35 171 -33 234 10 520 29 192 38 280 42 443 6 224 -3
318 -43 417 -15 39 -20 61 -13 66 6 3 -4 9 -21 13 -49 9 -121 6 -165 -8z m-60
-58 c-76 -39 -114 -86 -147 -183 -14 -39 -16 -42 -12 -15 14 86 78 174 147
204 49 22 57 18 12 -6z m-175 -298 l-11 -25 6 25 c2 14 5 34 6 45 2 19 2 19 6
0 2 -12 -1 -32 -7 -45z m1356 -7707 c-7 -17 -8 -17 -17 0 -12 21 -2 44 13 29
6 -6 8 -19 4 -29z"/>
<path d="M15740 10224 c-80 -35 -85 -60 -46 -250 72 -348 105 -473 140 -522
81 -113 117 -227 119 -367 0 -118 -18 -199 -68 -300 -64 -131 -162 -229 -291
-295 -55 -28 -57 -30 -27 -30 36 0 126 18 286 56 62 15 112 23 117 18 4 -5 20
-61 34 -124 28 -124 101 -431 112 -467 3 -13 10 -21 14 -18 7 5 39 -96 90
-285 38 -143 68 -227 93 -263 23 -33 34 -27 65 37 l19 38 48 -61 c26 -34 50
-59 53 -56 2 2 14 0 25 -6 15 -9 18 -8 12 2 -6 9 -3 11 8 6 62 -24 43 304 -53
903 -59 373 -130 691 -170 770 -14 27 -33 42 -83 65 l-65 29 -31 126 c-33 134
-108 459 -121 525 -24 116 -93 373 -111 407 -22 43 -71 78 -109 78 -14 -1 -41
-8 -60 -16z m100 -154 c0 -11 -4 -20 -10 -20 -5 0 -10 9 -10 20 0 11 5 20 10
20 6 0 10 -9 10 -20z m352 -1375 c0 -26 -5 -52 -11 -58 -13 -13 -14 16 -5 76
9 49 16 41 16 -18z"/>
<path d="M15193 9371 c-107 -37 -192 -144 -209 -263 -11 -82 33 -191 101 -251
44 -39 68 -45 170 -43 80 2 108 6 141 24 58 30 103 78 132 141 21 45 24 64 20
125 -3 46 -13 86 -27 114 -12 23 -19 47 -15 53 10 17 -63 76 -121 98 -68 25
-123 26 -192 2z m140 -51 c26 0 123 -95 147 -144 67 -139 -37 -306 -190 -306
-47 0 -119 25 -107 37 3 3 41 9 84 14 85 9 113 24 151 80 22 31 23 41 18 104
-14 150 -13 148 -58 171 -22 11 -49 15 -94 12 -83 -5 -136 -41 -177 -118 -25
-47 -28 -63 -24 -111 3 -31 12 -71 21 -90 l17 -34 -30 32 c-91 97 -18 293 129
344 30 10 64 17 75 14 11 -3 28 -5 38 -5z m-177 -129 c-10 -11 -24 -37 -32
-58 -7 -21 -13 -30 -14 -19 0 23 40 96 53 96 6 0 2 -9 -7 -19z m164 -16 c39
-46 -58 -167 -116 -145 -42 16 -34 103 12 139 31 24 86 28 104 6z m67 -126
c-13 -32 -47 -71 -47 -54 0 4 10 29 22 56 25 54 48 52 25 -2z m150 6 c-8 -56
-30 -100 -70 -142 -45 -47 -55 -41 -13 8 35 42 66 114 66 156 0 13 5 23 11 23
8 0 10 -14 6 -45z"/>
<path d="M15033 8440 c0 -16 -3 -33 -7 -37 -7 -8 -31 18 -39 40 -1 5 -8 8 -15
6 -8 -3 -3 -23 17 -64 51 -103 47 -100 168 -98 61 2 111 7 119 14 9 7 14 31
14 63 l0 53 -80 12 c-45 7 -99 19 -122 27 -54 19 -55 19 -55 -16z"/>
<path d="M16164 3921 c-107 -52 -116 -64 -115 -146 1 -73 11 -105 21 -65 22
91 90 -63 136 -308 5 -23 6 -23 27 -8 51 37 126 78 180 98 67 25 67 14 15 183
-46 154 -97 243 -155 273 -28 15 -17 18 -109 -27z m26 -211 c6 -12 10 -35 8
-53 l-4 -32 -17 37 c-19 42 -22 68 -7 68 5 0 14 -9 20 -20z"/>
<path d="M16130 3385 c0 -11 24 -55 30 -55 16 0 18 14 3 36 -13 21 -33 32 -33
19z"/>
<path d="M16683 3100 c-164 -34 -281 -211 -243 -369 16 -67 61 -133 114 -169
41 -27 48 -28 136 -25 118 5 174 27 235 95 71 79 90 195 47 292 -12 27 -22 56
-22 65 0 41 -103 104 -185 114 -22 3 -59 1 -82 -3z m126 -81 c38 -23 37 -34
-3 -19 -62 23 -140 4 -198 -48 -75 -68 -98 -163 -58 -249 20 -44 14 -56 -12
-25 -57 69 -48 193 20 273 68 79 182 110 251 68z m130 -165 c33 -130 -69 -264
-201 -264 -46 0 -127 25 -116 35 3 3 42 12 88 20 92 16 122 31 151 78 18 29
20 43 15 137 l-5 105 28 -34 c16 -18 34 -53 40 -77z m-350 35 c-6 -12 -17 -40
-24 -63 -7 -22 -13 -32 -14 -21 -1 21 34 105 44 105 3 0 1 -10 -6 -21z m179
-19 c4 -45 -31 -99 -75 -117 -30 -12 -35 -11 -54 8 -28 28 -20 81 18 121 23
24 34 28 68 26 38 -3 40 -5 43 -38z m68 -74 c-4 -18 -15 -41 -24 -50 -17 -15
-17 -12 2 46 20 62 33 65 22 4z m133 -63 c-11 -41 -88 -141 -89 -117 0 6 7 18
17 25 22 19 63 108 63 139 0 14 4 36 8 50 6 22 7 20 10 -15 2 -21 -2 -59 -9
-82z"/>
<path d="M22283 2782 c-6 -4 -12 -62 -15 -140 -3 -82 -1 -128 4 -118 18 32 28
4 28 -77 0 -87 16 -163 44 -212 10 -19 15 -22 11 -9 -3 12 -12 59 -20 105 -13
74 -13 98 1 223 13 109 14 148 5 178 -12 39 -39 62 -58 50z"/>
<path d="M21579 2614 c16 -25 43 -82 61 -127 17 -45 36 -91 41 -102 18 -39 -2
38 -26 100 -13 33 -26 76 -29 96 -4 23 -16 43 -36 57 -42 31 -43 28 -11 -24z"/>
<path d="M22180 2296 c0 -7 67 -36 83 -36 7 0 5 6 -3 15 -16 15 -80 32 -80 21z"/>
<path d="M21710 2251 c0 -12 5 -21 10 -21 6 0 10 6 10 14 0 8 -4 18 -10 21 -5
3 -10 -3 -10 -14z"/>
<path d="M21740 2120 c0 -5 5 -10 10 -10 6 0 10 5 10 10 0 6 -4 10 -10 10 -5
0 -10 -4 -10 -10z"/>
<path d="M22446 2023 c4 -15 29 -71 56 -126 27 -54 51 -119 55 -143 9 -66 -31
-138 -120 -218 l-71 -64 17 -26 c17 -26 19 -26 140 -25 67 1 136 5 152 9 17 4
24 8 18 9 -7 0 -20 15 -29 33 -14 27 -14 39 -4 90 15 69 7 104 -47 212 -36 72
-161 276 -169 276 -2 0 -1 -12 2 -27z"/>
</g>
</svg>
