<?xml version="1.0" standalone="no"?>
<!DOCTYPE svg PUBLIC "-//W3C//DTD SVG 20010904//EN"
 "http://www.w3.org/TR/2001/REC-SVG-20010904/DTD/svg10.dtd">
<svg version="1.0" xmlns="http://www.w3.org/2000/svg"
 width="4096.000000pt" height="2304.000000pt" viewBox="0 0 4096.000000 2304.000000"
 preserveAspectRatio="xMidYMid meet">

<g transform="translate(0.000000,2304.000000) scale(0.100000,-0.100000)"
fill="#000000" stroke="none">
<path d="M20495 21394 c-288 -34 -455 -96 -652 -242 -159 -119 -349 -349 -405
-491 -32 -82 -35 -189 -9 -286 24 -84 128 -364 142 -379 5 -6 9 1 9 16 0 92
43 107 253 83 159 -18 261 -13 415 21 37 8 81 17 97 21 26 5 189 47 400 103
230 61 451 44 593 -46 61 -40 65 -58 28 -143 -26 -61 -26 -77 3 -225 33 -165
52 -286 58 -366 4 -64 1 -88 -22 -155 -14 -44 -44 -113 -66 -153 -23 -44 -39
-87 -39 -107 0 -19 -9 -58 -20 -88 -27 -71 -89 -118 -164 -125 -34 -3 -59 -12
-76 -27 -14 -13 -85 -68 -159 -123 -225 -169 -392 -235 -596 -235 -63 1 -119
6 -150 16 l-50 16 30 -25 c17 -14 72 -45 123 -71 78 -38 92 -49 92 -69 0 -24
2 -24 93 -24 101 0 457 -17 497 -24 14 -2 47 -7 75 -11 114 -16 141 -61 170
-278 6 -47 8 -49 33 -42 48 11 52 22 36 105 -7 41 -16 140 -20 220 -4 80 -8
146 -9 148 -1 1 -24 -5 -51 -13 -102 -30 -368 -73 -347 -55 5 4 37 19 73 35
36 15 74 36 86 46 11 11 26 19 32 19 7 0 29 16 51 35 21 19 42 35 46 35 14 0
160 142 207 201 33 41 121 181 144 229 29 61 59 125 60 130 1 7 15 42 25 65
13 31 39 153 39 188 0 18 -12 71 -26 119 l-27 87 21 35 c11 19 19 43 17 53 -3
10 -6 34 -9 53 -3 19 -7 46 -11 60 -3 14 -8 41 -10 60 -3 19 -8 46 -11 60 -3
14 -8 39 -10 55 -2 17 -6 41 -9 55 -3 14 -7 36 -10 49 -16 83 87 -132 139
-291 l42 -128 44 -22 c27 -14 56 -40 73 -65 16 -24 32 -43 36 -43 9 0 32 81
56 195 23 108 23 332 1 444 -70 357 -297 803 -526 1032 -85 86 -107 102 -200
147 -118 58 -209 85 -355 107 -91 14 -224 17 -300 9z m-402 -682 c3 10 9 8 23
-6 19 -18 19 -19 0 -12 -17 6 -17 5 -5 -11 13 -15 12 -16 -8 -11 -13 4 -25 2
-28 -3 -3 -5 -15 -3 -25 3 -18 11 -18 14 -3 30 11 13 20 15 29 8 8 -8 13 -7
17 2z"/>
<path d="M18130 21202 c0 -5 6 -14 13 -20 18 -15 57 -25 57 -14 0 7 -14 16
-62 40 -5 2 -8 -1 -8 -6z"/>
<path d="M17740 21032 c0 -11 45 -32 68 -32 12 0 8 6 -13 20 -31 21 -55 26
-55 12z"/>
<path d="M17369 20860 c13 -11 33 -20 45 -20 17 1 14 4 -14 20 -45 25 -61 25
-31 0z"/>
<path d="M20715 19895 c-40 -14 -75 -47 -75 -69 0 -20 41 -53 93 -75 137 -59
284 -22 290 73 2 32 -3 42 -26 59 -24 19 -44 22 -135 24 -75 2 -119 -1 -147
-12z"/>
<path d="M19785 19794 c-5 -1 -22 -5 -37 -8 -14 -3 -40 -18 -57 -32 -60 -50
-30 -126 54 -139 78 -12 152 70 124 136 -6 16 -12 29 -13 29 -1 0 -15 4 -31 8
-17 5 -34 8 -40 6z"/>
<path d="M20843 19538 c-30 -8 -46 -28 -23 -28 14 0 12 -13 -4 -35 -11 -16
-17 -17 -29 -7 -13 11 -16 8 -22 -18 -18 -80 70 -149 147 -117 41 17 80 86 72
127 -13 62 -74 96 -141 78z"/>
<path d="M17140 19431 c0 -63 93 -16 -925 -466 -269 -119 -529 -234 -577 -256
-48 -21 -106 -42 -129 -45 l-42 -7 24 -19 c13 -11 42 -37 64 -57 22 -21 68
-58 102 -83 34 -25 59 -49 55 -52 -14 -14 303 123 945 410 78 34 158 66 176
69 78 15 139 -64 104 -132 -18 -33 17 -17 -730 -348 -258 -114 -487 -210 -510
-213 l-41 -5 78 -73 c43 -40 98 -83 122 -96 27 -14 42 -28 39 -36 -7 -19 10
-13 245 90 113 50 223 92 245 95 75 9 127 -66 92 -134 -13 -25 -53 -46 -280
-147 -170 -76 -283 -121 -318 -126 -30 -4 -49 -8 -42 -9 6 0 47 -34 90 -73 44
-40 101 -84 128 -97 27 -13 62 -38 79 -55 17 -18 47 -38 66 -45 19 -7 44 -17
55 -22 24 -11 104 -7 124 5 10 7 12 6 6 -3 -4 -8 4 -7 24 4 17 9 36 13 41 10
6 -3 10 1 10 9 0 14 12 20 33 17 4 0 7 4 7 10 0 5 4 8 9 5 5 -4 11 -2 13 4 2
8 118 56 153 64 6 1 19 7 30 13 11 6 23 10 26 10 14 -4 79 50 79 65 0 9 4 18
9 20 12 4 16 57 7 83 -29 82 -61 120 -211 253 -20 17 -32 32 -26 32 6 0 13 -1
15 -2 2 -2 13 6 25 16 12 11 21 15 21 11 0 -4 8 -2 18 6 9 8 31 16 47 17 26 2
151 57 165 72 12 14 83 50 96 50 8 0 26 7 39 16 13 8 38 18 55 20 29 5 98 39
110 55 3 3 18 9 34 13 23 6 27 9 15 17 -10 6 -10 9 -1 10 6 1 16 2 20 3 12 2
45 36 35 36 -4 0 -2 4 6 9 47 30 -4 135 -118 248 -47 46 -89 83 -93 83 -4 0
-8 9 -8 21 0 11 4 18 9 15 5 -3 14 1 21 9 7 8 19 15 26 15 8 0 14 4 14 9 0 5
10 13 23 17 12 3 34 15 50 26 15 11 33 18 40 15 6 -2 19 1 27 9 8 7 26 15 40
18 14 2 43 13 65 24 22 11 43 18 47 16 4 -3 18 4 30 15 12 12 25 21 29 21 5 0
19 11 33 25 24 24 47 33 45 18 -3 -20 2 -31 17 -37 12 -5 14 -1 8 17 -8 28
-36 55 -52 49 -11 -3 -17 10 -13 31 2 10 -89 125 -116 147 -10 8 -61 48 -114
88 -53 40 -107 84 -119 97 -32 34 -40 31 -40 -14z"/>
<path d="M19784 19396 c-36 -56 -7 -161 50 -181 24 -8 31 -6 47 14 12 14 19
39 19 65 0 50 -9 65 -35 63 -16 -2 -20 4 -20 28 -1 41 -37 47 -61 11z"/>
<path d="M24610 19115 c-3 -77 -5 -142 -3 -144 10 -15 13 23 11 145 l-3 139
-5 -140z"/>
<path d="M21581 19240 c-10 -18 -11 -119 -2 -124 6 -4 28 -4 48 1 l38 7 -35 6
c-34 5 -35 6 -41 60 -3 30 -7 53 -8 50z"/>
<path d="M18335 19054 c-91 -238 -98 -250 -137 -263 -38 -13 -51 -9 -188 44
-52 20 -113 43 -135 51 l-40 14 45 -40 c50 -45 93 -70 160 -93 25 -9 88 -32
140 -52 65 -25 104 -34 124 -30 31 6 66 31 66 48 0 9 28 85 59 162 61 150 61
153 8 269 l-33 69 -69 -179z"/>
<path d="M21749 19183 c-13 -16 -12 -17 4 -4 9 7 17 15 17 17 0 8 -8 3 -21
-13z"/>
<path d="M20432 18999 c-18 -16 -46 -32 -63 -36 -41 -8 -45 -20 -10 -28 51
-11 118 39 109 80 -2 10 -13 5 -36 -16z"/>
<path d="M23692 18964 c6 -26 147 -224 159 -224 18 0 7 20 -67 121 -90 122
-99 132 -92 103z"/>
<path d="M20640 18719 c0 -5 -12 -15 -27 -21 -36 -13 -103 -88 -79 -88 38 0
124 60 147 103 8 14 5 17 -16 17 -14 0 -25 -5 -25 -11z"/>
<path d="M18195 18543 c-199 -90 -213 -95 -264 -91 l-55 5 86 -83 c54 -52 106
-92 142 -109 31 -14 57 -31 57 -36 5 -39 25 -64 80 -103 66 -48 86 -45 125 22
66 110 92 291 60 425 -7 32 -15 60 -18 62 -2 2 -98 -39 -213 -92z"/>
<path d="M24830 18608 c-52 -16 -129 -40 -170 -52 l-75 -23 -2 -49 c-1 -27 -4
-112 -6 -189 -3 -90 -2 -126 3 -100 5 22 9 65 9 96 1 31 4 77 7 102 l7 45 179
58 c163 53 179 60 174 79 -3 11 -6 30 -6 43 0 27 -3 27 -120 -10z"/>
<path d="M23940 18343 c-189 -55 -204 -56 -273 -28 -16 7 -16 4 -6 -21 15 -42
37 -63 78 -75 31 -9 61 -3 221 39 l185 50 48 -52 c27 -28 81 -93 119 -144 72
-96 94 -112 153 -112 41 0 45 6 36 50 -6 33 -8 34 -56 34 -32 1 -62 8 -81 21
-18 11 -75 79 -129 150 -53 72 -100 132 -104 136 -3 3 -89 -19 -191 -48z"/>
<path d="M21321 18233 l-54 -4 8 -92 c4 -51 10 -111 13 -135 l7 -42 55 45 c30
25 91 71 135 102 44 32 94 71 110 89 l30 32 -59 6 c-59 6 -144 6 -245 -1z"/>
<path d="M20045 17975 c-18 -9 -21 -13 -8 -9 35 8 63 -26 54 -68 -13 -58 -52
-121 -106 -174 l-53 -51 10 -49 c14 -69 62 -168 155 -321 64 -104 86 -150 104
-218 13 -51 29 -89 37 -93 16 -6 52 31 52 54 0 7 -42 80 -93 161 -173 276
-208 402 -146 524 15 30 32 42 103 74 l84 37 -22 43 c-55 103 -97 125 -171 90z"/>
<path d="M22028 17893 c18 -2 45 -2 60 0 15 2 0 4 -33 4 -33 0 -45 -2 -27 -4z"/>
<path d="M21850 17805 c-136 -30 -293 -106 -411 -201 -37 -29 -113 -104 -170
-166 -153 -167 -305 -318 -319 -318 -7 0 4 18 24 40 55 61 46 77 -16 30 -29
-22 -56 -40 -60 -40 -5 0 -8 -9 -8 -20 0 -31 -57 -36 -116 -11 -48 21 -48 21
-24 1 14 -11 56 -36 94 -55 146 -74 222 -44 446 177 199 195 365 319 559 417
133 68 180 81 292 84 l90 2 -26 22 c-58 51 -216 67 -355 38z"/>
<path d="M17446 17581 c5 -5 127 -57 272 -117 180 -73 266 -104 273 -97 7 7
-18 22 -78 46 -48 20 -166 67 -261 106 -156 64 -233 87 -206 62z"/>
<path d="M20508 17209 c-21 -11 -38 -24 -38 -29 0 -6 18 1 39 16 32 21 43 24
60 15 11 -6 28 -11 38 -10 12 0 9 5 -12 14 -39 18 -43 18 -87 -6z"/>
<path d="M15509 17201 c6 -10 34 -40 63 -66 92 -83 216 -133 343 -140 71 -4
74 -3 25 4 -83 13 -139 30 -204 63 -61 30 -156 99 -190 137 -25 27 -51 29 -37
2z"/>
<path d="M19871 17130 c-57 -34 -114 -71 -127 -83 -12 -12 -40 -27 -61 -33
l-38 -11 35 -21 c42 -26 67 -22 135 23 55 35 185 159 185 175 0 20 -26 9 -129
-50z"/>
<path d="M19410 16850 c-493 -54 -530 -64 -571 -154 -30 -66 -24 -126 32 -317
28 -96 60 -210 71 -254 11 -44 33 -115 49 -158 16 -43 29 -84 29 -90 -1 -17
-41 61 -56 108 l-13 40 0 -35 c0 -19 6 -51 13 -70 16 -45 99 -110 142 -110 45
0 117 50 234 165 230 225 327 251 503 136 83 -55 154 -131 190 -205 21 -43 24
-63 22 -126 -4 -95 -17 -125 -91 -208 -33 -37 -115 -140 -182 -229 -158 -209
-219 -264 -377 -344 -67 -34 -167 -94 -221 -135 -107 -79 -182 -114 -247 -114
-38 0 -39 -1 -21 -14 12 -10 16 -18 9 -24 -19 -19 -311 -160 -437 -211 -428
-173 -744 -242 -958 -209 l-45 7 45 -21 c103 -48 279 -61 440 -33 170 30 452
127 669 231 142 68 366 197 378 218 5 7 31 18 58 25 72 18 140 51 263 127 291
182 293 184 558 559 116 164 144 207 161 255 9 25 12 29 13 14 0 -12 -13 -46
-28 -76 -28 -52 -270 -403 -359 -521 l-44 -57 58 6 c157 15 402 46 438 54 50
11 69 35 90 108 9 31 24 65 32 74 18 21 10 61 -63 301 -25 82 -44 151 -41 153
8 8 45 -49 65 -102 11 -27 30 -89 42 -139 28 -111 59 -182 106 -247 40 -54
126 -118 160 -118 11 0 62 -29 112 -65 239 -168 552 -343 962 -538 138 -66
479 -187 661 -236 195 -52 384 -65 520 -35 111 24 263 102 343 175 189 173
268 371 265 663 l-2 131 -8 -115 c-16 -233 -71 -364 -213 -505 -133 -131 -278
-208 -464 -247 -132 -27 -342 -21 -521 17 -245 51 -650 204 -930 351 -285 150
-470 308 -551 470 -23 46 -43 102 -46 130 -6 48 -5 50 50 114 31 36 56 71 56
77 0 7 -14 38 -31 70 -17 32 -67 127 -111 213 -86 165 -120 221 -162 259 l-26
24 26 -74 c34 -96 39 -129 21 -129 -16 0 -47 31 -47 47 0 6 -13 26 -30 44 -16
19 -30 38 -30 43 0 4 -59 68 -131 142 -72 73 -151 162 -175 198 -54 80 -62 85
-86 56 -11 -14 -22 -20 -28 -14 -5 5 -34 80 -64 167 -31 86 -63 172 -72 189
-23 46 -72 96 -116 119 -44 23 -69 22 -288 -1z m215 -49 c3 -5 1 -12 -4 -15
-12 -8 -41 3 -41 15 0 12 37 12 45 0z"/>
<path d="M16530 16016 c0 -14 5 -28 10 -31 6 -4 10 7 10 24 0 17 -4 31 -10 31
-5 0 -10 -11 -10 -24z"/>
<path d="M22880 15953 c-199 -23 -437 -121 -559 -230 l-43 -38 27 -78 28 -78
23 58 c63 159 333 294 584 294 185 0 308 -41 343 -113 9 -21 18 -38 20 -38 2
0 1 17 -1 38 -3 23 -1 33 5 27 13 -14 27 -68 54 -208 14 -71 27 -116 33 -114
21 7 86 103 102 151 32 95 -2 197 -84 250 -46 31 -138 62 -223 75 -61 10 -236
12 -309 4z m600 -267 c-7 -7 -10 1 -9 25 0 32 1 33 10 10 6 -16 6 -28 -1 -35z"/>
<path d="M17820 15934 c0 -15 -161 -229 -171 -227 -4 2 -6 -4 -3 -12 4 -8 9
-15 13 -15 3 0 32 38 64 85 65 96 105 123 191 132 98 9 266 -41 396 -119 36
-22 58 -33 50 -24 -36 37 -186 115 -276 146 -99 32 -264 54 -264 34z"/>
<path d="M16588 15853 c7 -3 16 -2 19 1 4 3 -2 6 -13 5 -11 0 -14 -3 -6 -6z"/>
<path d="M18690 15743 c-136 -158 -132 -151 -113 -186 14 -29 17 -30 24 -12 7
19 23 38 116 137 40 44 44 52 41 92 l-3 44 -65 -75z"/>
<path d="M18454 15658 c6 -19 -20 -59 -151 -235 -98 -132 -259 -380 -252 -387
2 -3 15 -2 29 1 18 3 43 31 88 96 64 93 76 111 146 205 44 60 60 80 131 158
46 51 52 55 77 45 26 -10 26 -9 16 19 -10 31 -93 127 -84 98z"/>
<path d="M15651 15630 c0 -33 1 -34 11 -12 8 17 8 26 0 34 -9 9 -12 4 -11 -22z"/>
<path d="M22223 15593 c-13 -20 -18 -47 -18 -99 0 -40 -1 -71 -3 -69 -2 2 -10
25 -17 52 l-13 48 -1 -43 c-2 -76 54 -152 148 -205 25 -13 46 -32 47 -43 3
-17 40 -53 56 -54 14 0 -23 84 -42 97 -16 11 -20 26 -20 72 0 39 -5 63 -14 71
-8 6 -32 52 -52 101 -20 49 -41 92 -45 95 -5 2 -16 -8 -26 -23z"/>
<path d="M18515 15467 c-22 -28 -71 -92 -108 -142 l-68 -90 43 -3 c78 -6 207
50 194 84 -3 9 -1 35 5 59 8 33 8 57 -1 95 -7 27 -15 50 -18 49 -4 0 -25 -23
-47 -52z"/>
<path d="M14790 15195 c0 -14 5 -25 10 -25 6 0 10 11 10 25 0 14 -4 25 -10 25
-5 0 -10 -11 -10 -25z"/>
<path d="M21557 14483 c-3 -5 -8 -42 -12 -83 -9 -104 -39 -207 -100 -345 -7
-16 -16 -41 -18 -55 -3 -14 -12 -52 -20 -85 -9 -33 -18 -87 -22 -120 -4 -33
-15 -85 -25 -115 -24 -75 -94 -205 -111 -205 -8 -1 -13 -6 -12 -11 1 -6 -3
-11 -10 -12 -7 -1 -57 -6 -112 -11 -55 -6 -266 -11 -469 -11 -377 0 -487 8
-641 47 -202 50 -580 135 -710 159 -52 9 -120 31 -161 50 -39 19 -77 34 -84
34 -7 0 -30 5 -51 11 -30 10 -41 20 -53 51 -9 21 -16 50 -16 63 0 14 -4 25 -8
25 -10 0 -42 -302 -42 -396 0 -48 5 -75 13 -83 8 -6 16 -9 18 -7 2 2 39 6 82
10 76 7 77 6 77 -16 0 -61 97 -321 140 -375 16 -21 17 -29 5 -92 -56 -293 -70
-520 -70 -1141 0 -507 8 -768 35 -1245 41 -716 53 -888 110 -1690 43 -600 54
-759 75 -1030 8 -110 20 -261 25 -335 6 -74 17 -220 25 -325 8 -104 20 -251
25 -325 6 -74 17 -216 25 -315 8 -99 19 -243 25 -320 5 -77 12 -162 15 -190 3
-27 12 -138 20 -245 18 -231 61 -775 75 -945 5 -66 17 -208 25 -315 8 -107 20
-247 25 -310 5 -63 14 -176 20 -250 16 -204 15 -198 58 -209 20 -5 63 -13 95
-16 55 -7 57 -8 57 -36 0 -17 6 -32 13 -34 6 -2 86 -9 177 -15 220 -14 349
-35 377 -62 25 -23 32 -80 42 -321 l6 -159 -38 6 c-90 15 -179 -44 -227 -149
-27 -58 -48 -125 -55 -175 -7 -48 -33 -149 -43 -165 -4 -5 -7 -16 -8 -23 -2
-13 -50 -62 -60 -62 -3 0 -12 -6 -19 -13 -35 -31 -44 -35 -61 -33 -11 2 -31 0
-46 -5 -17 -4 -28 -4 -28 2 0 24 -179 -30 -180 -54 0 -9 -26 -37 -34 -37 -7 0
-159 -143 -218 -204 -54 -57 -95 -128 -99 -171 -1 -16 1 -49 5 -72 7 -39 11
-44 49 -54 156 -42 409 -60 574 -40 116 15 291 52 423 91 95 28 246 84 265 98
6 4 10 43 10 87 0 44 6 159 13 255 9 118 11 241 6 378 -5 148 -4 202 5 202 17
0 13 35 -6 52 -10 8 -40 24 -68 36 -86 38 -98 46 -106 74 -11 41 -17 434 -8
516 4 41 13 80 19 87 6 7 37 18 69 23 32 6 74 17 93 25 l35 15 7 503 c3 277 8
747 11 1044 28 2983 40 3634 96 5100 22 592 34 839 54 1165 29 473 41 598 52
586 3 -2 9 -51 13 -108 39 -480 81 -932 134 -1458 51 -494 52 -504 161 -1495
41 -374 82 -741 90 -815 73 -670 146 -1744 245 -3605 6 -104 17 -311 25 -460
8 -148 17 -333 21 -410 4 -77 11 -148 16 -157 12 -24 57 -46 125 -61 51 -12
58 -17 61 -40 3 -28 9 -30 122 -46 337 -48 396 -61 414 -89 3 -5 8 -39 12 -75
l7 -67 -30 6 c-29 6 -32 3 -59 -52 -45 -96 -38 -175 33 -381 27 -80 29 -83 72
-98 25 -8 45 -14 46 -12 5 6 26 215 30 297 3 65 0 112 -10 150 -22 81 -22 352
-1 386 9 13 22 24 29 24 32 0 119 33 142 53 l25 22 10 2880 c6 1584 15 3035
19 3225 5 190 12 467 16 615 3 149 10 428 15 620 27 1002 32 1454 21 1704 -7
139 -15 259 -18 268 -4 10 -12 0 -24 -32 -16 -42 -57 -100 -65 -92 -2 2 12 48
30 103 35 105 73 264 78 324 3 35 3 35 62 42 57 7 74 13 65 22 -15 15 -424 54
-624 59 -55 2 -10 4 100 5 110 1 217 6 238 11 48 12 108 51 105 71 -1 8 2 35
7 60 9 54 14 220 6 220 -3 0 -7 52 -9 115 -1 64 -5 130 -8 148 -3 17 -6 40 -7
50 -2 21 -17 23 -17 1 0 -9 -5 -12 -12 -8 -6 4 -8 3 -4 -4 3 -6 2 -13 -3 -17
-6 -3 -8 -12 -5 -20 7 -18 -32 -69 -54 -73 -59 -9 -83 -8 -108 3 -16 7 -63 26
-104 41 -41 15 -78 31 -81 36 -3 6 -9 9 -13 9 -23 -4 -278 139 -340 190 -70
58 -254 185 -302 209 -59 29 -108 38 -117 23z m725 -873 c47 -18 148 -101 148
-122 0 -4 -18 -17 -40 -28 -37 -19 -58 -20 -398 -20 -198 0 -374 3 -391 6 -25
5 -31 11 -29 27 5 31 90 69 208 92 19 4 40 11 46 17 16 12 44 17 132 24 82 6
112 11 120 19 14 14 155 4 204 -15z m-2564 -936 c34 -7 88 -55 113 -100 9 -16
24 -60 33 -97 18 -71 17 -118 -4 -262 -7 -44 -13 -91 -14 -105 0 -14 -4 -27
-8 -30 -4 -3 -10 -26 -13 -50 -8 -66 -10 -74 -17 -86 -4 -6 -7 -32 -6 -57 0
-26 -4 -53 -10 -59 -5 -7 -13 -44 -17 -83 -7 -81 -12 -120 -15 -120 -1 0 -4
-22 -6 -49 -2 -27 -8 -52 -14 -56 -5 -3 -11 -27 -13 -52 -1 -26 -7 -51 -11
-55 -5 -4 -7 -3 -3 2 3 6 1 17 -4 25 -11 18 -5 -33 7 -52 5 -8 2 -9 -9 -5 -10
3 -17 2 -17 -3 0 -6 5 -10 12 -10 6 0 8 -3 5 -6 -3 -4 -22 1 -42 10 -26 13
-35 23 -35 41 0 14 -6 25 -12 25 -9 0 -8 4 2 10 8 5 10 10 4 10 -6 0 -11 14
-12 31 0 17 -6 37 -13 45 -8 10 -8 14 0 14 17 0 13 21 -6 36 -12 9 -14 13 -5
14 7 0 10 5 7 11 -4 6 -9 27 -10 47 -4 41 -8 62 -16 77 -3 6 -5 31 -4 58 0 26
-2 47 -6 47 -4 0 -6 17 -5 38 1 20 -2 57 -7 82 -13 72 -25 220 -31 390 -6 143
17 223 81 283 48 45 67 52 121 41z m-40 -1320 c6 -7 12 -16 12 -20 0 -5 -5 -3
-12 4 -7 7 -20 12 -29 12 -10 0 -20 4 -23 8 -8 13 38 9 52 -4z m2 -44 c0 -5
-4 -10 -10 -10 -5 0 -10 5 -10 10 0 6 5 10 10 10 6 0 10 -4 10 -10z"/>
<path d="M22696 14182 c-3 -5 1 -9 9 -9 8 0 12 4 9 9 -3 4 -7 8 -9 8 -2 0 -6
-4 -9 -8z"/>
<path d="M22707 14134 c6 -15 23 -19 23 -5 0 5 -7 11 -14 14 -10 4 -13 1 -9
-9z"/>
<path d="M19978 3224 c29 -57 36 -136 19 -224 l-15 -74 29 32 c21 24 29 44 31
75 1 37 2 38 5 10 2 -18 7 -33 9 -33 3 0 23 15 44 32 l38 32 -20 31 c-28 40
-96 112 -131 137 l-29 21 20 -39z"/>
<path d="M22646 3093 c-5 -11 -10 -13 -17 -6 -9 9 -70 -4 -82 -18 -3 -2 -7
-38 -10 -79 l-6 -75 24 46 c13 25 31 52 41 60 16 13 17 11 12 -16 -3 -17 -17
-70 -32 -120 -40 -129 -44 -226 -16 -361 12 -60 22 -129 21 -154 0 -25 4 -77
10 -117 20 -136 17 -184 -16 -248 -16 -32 -52 -83 -81 -114 -42 -46 -50 -60
-43 -78 13 -36 42 -43 168 -43 119 0 121 0 102 19 -29 29 -36 96 -16 154 14
43 14 53 0 120 -9 39 -20 100 -25 133 -13 85 -59 300 -71 330 -24 65 -21 156
11 318 17 87 38 176 47 197 15 38 13 69 -6 69 -5 0 -12 -8 -15 -17z"/>
<path d="M21791 3017 c34 -63 73 -174 84 -235 4 -23 11 -42 16 -42 9 0 8 10
-16 106 -7 28 -18 85 -25 126 -11 66 -16 77 -35 82 -13 3 -30 9 -39 12 -10 4
-6 -11 15 -49z"/>
<path d="M21886 2613 c-10 -36 -17 -178 -8 -163 9 14 24 180 17 180 -2 0 -6
-8 -9 -17z"/>
<path d="M22440 2620 c0 -11 39 -34 46 -27 6 6 -25 37 -37 37 -5 0 -9 -4 -9
-10z"/>
<path d="M22470 2485 c0 -2 10 -10 23 -16 20 -11 21 -11 8 4 -13 16 -31 23
-31 12z"/>
</g>
</svg>
