<svg width="1440" height="244" viewBox="0 0 1440 244" fill="none" xmlns="http://www.w3.org/2000/svg">
<g filter="url(#filter0_iiii_382_3006)">
<path d="M208.341 9.3908L42.3828 40.3433C-35.8085 54.9266 -92.5 123.169 -92.5 202.709C-92.5 225.513 -74.0133 244 -51.2087 244H1490.28C1511.11 244 1528 227.11 1528 206.276C1528 126.997 1466.65 61.2375 1387.56 55.7426L1346.2 52.8684C1333.1 51.9585 1320.13 49.7305 1307.48 46.2183L1191.88 14.1228C1146.68 1.5754 1099.06 0.578642 1053.38 11.224C1021.38 18.6831 988.309 20.4508 955.69 16.4463L848.362 3.26989C803.773 -2.20425 758.58 -0.127904 714.68 9.41181L610.348 32.084C551.541 44.8632 490.608 44.2086 432.089 30.169L361.824 13.3113C311.506 1.23925 259.209 -0.0965953 208.341 9.3908Z" fill="#639AFF"/>
</g>
<defs>
<filter id="filter0_iiii_382_3006" x="-342.5" y="-78.7109" width="1870.5" height="322.711" filterUnits="userSpaceOnUse" color-interpolation-filters="sRGB">
<feFlood flood-opacity="0" result="BackgroundImageFix"/>
<feBlend mode="normal" in="SourceGraphic" in2="BackgroundImageFix" result="shape"/>
<feColorMatrix in="SourceAlpha" type="matrix" values="0 0 0 0 0 0 0 0 0 0 0 0 0 0 0 0 0 0 127 0" result="hardAlpha"/>
<feOffset dx="-58" dy="-5"/>
<feGaussianBlur stdDeviation="64"/>
<feComposite in2="hardAlpha" operator="arithmetic" k2="-1" k3="1"/>
<feColorMatrix type="matrix" values="0 0 0 0 0.160784 0 0 0 0 0.247059 0 0 0 0 0.419608 0 0 0 0.21 0"/>
<feBlend mode="normal" in2="shape" result="effect1_innerShadow_382_3006"/>
<feColorMatrix in="SourceAlpha" type="matrix" values="0 0 0 0 0 0 0 0 0 0 0 0 0 0 0 0 0 0 127 0" result="hardAlpha"/>
<feOffset dx="-232" dy="-20"/>
<feGaussianBlur stdDeviation="116.5"/>
<feComposite in2="hardAlpha" operator="arithmetic" k2="-1" k3="1"/>
<feColorMatrix type="matrix" values="0 0 0 0 0.160784 0 0 0 0 0.247059 0 0 0 0 0.419608 0 0 0 0.18 0"/>
<feBlend mode="normal" in2="effect1_innerShadow_382_3006" result="effect2_innerShadow_382_3006"/>
<feColorMatrix in="SourceAlpha" type="matrix" values="0 0 0 0 0 0 0 0 0 0 0 0 0 0 0 0 0 0 127 0" result="hardAlpha"/>
<feOffset dx="-522" dy="-44"/>
<feGaussianBlur stdDeviation="125"/>
<feComposite in2="hardAlpha" operator="arithmetic" k2="-1" k3="1"/>
<feColorMatrix type="matrix" values="0 0 0 0 0.160784 0 0 0 0 0.247059 0 0 0 0 0.419608 0 0 0 0.1 0"/>
<feBlend mode="normal" in2="effect2_innerShadow_382_3006" result="effect3_innerShadow_382_3006"/>
<feColorMatrix in="SourceAlpha" type="matrix" values="0 0 0 0 0 0 0 0 0 0 0 0 0 0 0 0 0 0 127 0" result="hardAlpha"/>
<feOffset dx="-927" dy="-79"/>
<feGaussianBlur stdDeviation="125"/>
<feComposite in2="hardAlpha" operator="arithmetic" k2="-1" k3="1"/>
<feColorMatrix type="matrix" values="0 0 0 0 0.160784 0 0 0 0 0.247059 0 0 0 0 0.419608 0 0 0 0.03 0"/>
<feBlend mode="normal" in2="effect3_innerShadow_382_3006" result="effect4_innerShadow_382_3006"/>
</filter>
</defs>
</svg>
