<?xml version="1.0" standalone="no"?>
<!DOCTYPE svg PUBLIC "-//W3C//DTD SVG 20010904//EN"
 "http://www.w3.org/TR/2001/REC-SVG-20010904/DTD/svg10.dtd">
<svg version="1.0" xmlns="http://www.w3.org/2000/svg"
 width="4096.000000pt" height="2304.000000pt" viewBox="0 0 4096.000000 2304.000000"
 preserveAspectRatio="xMidYMid meet">

<g transform="translate(0.000000,2304.000000) scale(0.100000,-0.100000)"
fill="#000000" stroke="none">
<path d="M19200 21054 c-14 -2 -56 -9 -95 -15 -230 -34 -449 -153 -607 -328
-139 -155 -198 -285 -224 -490 -25 -205 -11 -576 32 -801 8 -47 19 -143 24
-213 9 -138 21 -172 72 -210 15 -11 47 -23 70 -26 39 -6 43 -9 51 -44 14 -60
65 -87 165 -87 105 0 181 15 261 52 36 17 89 37 116 45 78 24 104 41 136 91
28 45 29 50 29 172 0 142 3 149 68 174 49 19 73 20 124 6 42 -12 44 -16 57
-162 7 -74 15 -105 31 -128 30 -43 126 -105 196 -128 32 -11 109 -38 169 -61
61 -24 122 -47 137 -53 24 -9 26 -12 16 -41 -13 -39 -48 -90 -56 -83 -3 4 -21
-15 -39 -41 -47 -66 -225 -245 -301 -304 -67 -50 -218 -132 -312 -168 -157
-61 -361 -79 -467 -42 -29 10 -53 16 -53 14 0 -7 135 -90 168 -102 19 -8 32
-20 32 -31 0 -10 6 -22 13 -27 13 -11 112 -26 322 -48 184 -20 332 -44 376
-61 19 -8 43 -27 52 -43 20 -33 47 -192 47 -273 l0 -58 41 28 40 27 -5 65 c-3
36 -6 144 -6 241 l0 176 -94 -22 c-51 -13 -129 -26 -172 -30 -43 -4 -89 -8
-101 -10 -13 -2 -23 1 -23 6 0 5 7 9 15 9 15 0 152 58 170 72 6 5 39 27 74 50
35 23 82 59 104 80 22 21 42 38 44 38 9 0 33 29 33 39 0 6 6 11 14 11 7 0 21
10 29 23 9 12 27 36 41 52 14 17 30 36 36 42 6 7 10 16 9 19 0 4 3 10 8 13 4
3 21 31 37 61 16 30 32 57 35 60 3 3 13 19 21 35 8 17 21 36 28 43 6 7 12 20
12 28 0 8 9 27 19 42 20 28 60 147 79 237 6 28 13 62 16 78 5 21 3 27 -10 27
-12 0 -11 6 9 30 14 16 28 39 32 50 3 11 11 20 16 20 12 0 11 113 -1 260 -9
106 -12 118 -42 160 l-32 45 -1 147 c-1 81 2 145 7 142 13 -8 57 -87 72 -132
33 -93 71 -532 47 -546 -8 -5 -9 -48 -5 -150 5 -97 3 -169 -6 -225 -7 -45 -10
-84 -7 -88 3 -3 25 -3 49 1 44 7 155 63 144 73 -3 4 -14 -1 -24 -10 -10 -9
-29 -18 -43 -19 -23 -3 -24 -1 -26 64 -1 36 -9 96 -18 133 -8 36 -15 81 -15
99 0 19 -7 50 -15 69 -17 42 -10 50 43 45 l37 -3 13 85 c16 105 9 380 -13 530
-40 263 -118 557 -187 699 -33 69 -57 101 -132 176 -105 106 -180 159 -312
222 -156 74 -256 94 -479 98 -104 2 -201 2 -215 -1z m-220 -506 c0 -4 -13 -7
-30 -6 -16 1 -30 5 -30 9 0 4 14 7 30 7 17 -1 30 -5 30 -10z m1063 -448 c67
-21 147 -61 166 -83 23 -29 5 -142 -36 -222 -12 -23 -24 -58 -28 -78 -7 -36
-8 -37 -29 -23 -11 7 -42 34 -67 58 -53 52 -113 73 -207 73 -57 0 -66 -3 -87
-27 -41 -47 -13 -88 89 -131 l60 -25 -82 -6 c-45 -3 -118 -9 -162 -12 -58 -4
-89 -12 -112 -28 -40 -26 -81 -85 -75 -107 6 -21 -10 -49 -28 -49 -18 0 -20
17 -2 23 6 2 -13 9 -44 16 -53 11 -108 6 -161 -14 -11 -5 -25 7 -47 38 -17 25
-47 55 -67 68 -35 21 -42 22 -218 16 l-181 -6 48 19 c66 28 96 48 113 81 19
37 18 45 -6 69 -27 27 -83 26 -157 -2 -97 -36 -152 -112 -108 -148 8 -7 15
-16 15 -20 0 -4 -42 -10 -94 -13 -56 -3 -106 -12 -124 -21 -17 -9 -34 -16 -38
-16 -4 0 -4 53 -1 118 8 174 44 255 140 316 94 61 133 67 437 76 151 5 336 16
410 25 74 9 200 25 280 35 206 25 322 25 403 0z m-492 -586 c-11 -15 -21 -23
-21 -18 0 14 31 56 37 50 3 -3 -4 -17 -16 -32z m-1010 -47 c-26 -60 -34 -130
-35 -297 l-1 -145 -29 2 c-54 4 -78 41 -87 135 -11 122 -11 276 2 299 15 28
65 48 121 49 l47 0 -18 -43z m1250 13 c55 -17 99 -32 99 -34 0 -2 -16 -14 -36
-25 -30 -18 -34 -24 -24 -37 10 -11 10 -20 1 -40 -6 -14 -16 -22 -21 -19 -16
10 -10 -27 9 -60 33 -56 102 -72 138 -32 59 65 58 130 -5 185 l-27 24 30 -6
c17 -2 51 -7 77 -11 26 -3 58 -15 72 -26 25 -19 26 -25 26 -112 0 -85 -11
-161 -24 -174 -8 -8 -152 -20 -337 -28 -154 -7 -156 -7 -183 17 -26 23 -27 25
-33 185 l-6 161 31 31 c40 41 83 41 213 1z m-652 -12 c5 -18 13 -100 16 -183
l7 -150 -27 -40 -27 -40 32 30 c26 24 30 26 21 8 -14 -28 -29 -37 -66 -39
-268 -17 -405 -24 -476 -24 l-86 0 -7 53 c-9 78 -7 202 4 231 15 41 50 55 170
71 62 8 118 19 124 23 14 11 161 68 206 81 19 5 49 10 67 10 27 1 33 -3 42
-31z m101 -28 c0 -5 -7 -10 -16 -10 -8 0 -12 5 -9 10 3 6 10 10 16 10 5 0 9
-4 9 -10z m-10 -89 c0 -6 -4 -13 -10 -16 -5 -3 -10 1 -10 9 0 9 5 16 10 16 6
0 10 -4 10 -9z m1070 -220 c-6 -12 -15 -21 -21 -21 -10 0 -5 13 14 38 15 19
20 7 7 -17z m-1107 -69 c-31 -41 -46 -38 -18 3 14 21 26 43 26 49 1 6 3 3 6
-8 3 -10 -4 -30 -14 -44z m-637 -114 c-10 -6 -20 -7 -24 -3 -9 8 20 25 31 18
5 -3 2 -10 -7 -15z"/>
<path d="M18725 19344 c-63 -68 -30 -194 50 -194 54 0 102 72 90 136 -14 78
-92 110 -140 58z m100 -23 c3 -10 3 -26 -1 -35 -13 -33 -54 -10 -54 31 0 18 6
23 24 23 15 0 27 -7 31 -19z"/>
<path d="M19453 18977 c-7 -15 -36 -42 -65 -60 -44 -27 -48 -32 -29 -35 55 -8
117 48 109 101 -3 20 -4 19 -15 -6z"/>
<path d="M18383 18683 c9 -2 25 -2 35 0 9 3 1 5 -18 5 -19 0 -27 -2 -17 -5z"/>
<path d="M19938 17798 c3 -110 1 -157 -7 -162 -6 -4 -11 -12 -11 -17 0 -6 4
-8 9 -4 6 3 35 10 65 16 51 9 120 0 207 -27 12 -3 31 20 71 88 30 51 58 104
62 118 8 31 49 62 95 70 l36 7 -30 12 c-34 14 -226 37 -391 47 l-112 7 6 -155z"/>
<path d="M18676 17755 c15 -23 15 -33 4 -86 l-13 -60 47 -68 c63 -93 96 -122
56 -50 -40 73 -39 84 15 105 25 9 45 19 45 22 0 10 -92 126 -114 144 -12 10
-29 18 -39 18 -16 0 -16 -2 -1 -25z"/>
<path d="M20752 17460 c-67 -52 -134 -138 -274 -350 -143 -215 -193 -269 -276
-294 -22 -7 -22 -7 3 20 14 15 24 29 22 31 -7 7 -72 -21 -80 -34 -15 -25 -56
-13 -182 52 -70 36 -139 65 -153 65 -15 -1 -40 -12 -57 -26 -28 -23 -28 -24
-5 -16 33 13 127 -1 177 -26 23 -10 98 -52 166 -91 186 -107 241 -118 332 -65
53 31 105 85 211 224 102 133 174 239 199 293 20 42 79 103 125 128 l30 16
-59 37 c-32 19 -61 45 -64 56 -9 34 -58 26 -115 -20z"/>
<path d="M18106 17481 c-4 -6 6 -24 22 -42 21 -23 38 -32 66 -34 l38 -2 -33
26 c-57 46 -87 62 -93 52z"/>
<path d="M19059 16882 c-41 -27 -96 -61 -124 -76 -44 -24 -47 -25 -25 -5 19
17 20 21 6 15 -10 -3 -39 -12 -65 -18 -25 -6 -51 -18 -57 -26 -8 -11 -20 -13
-40 -8 l-29 7 30 -19 c64 -40 98 -46 150 -28 27 9 72 32 102 53 60 41 162 153
140 153 -8 0 -48 -22 -88 -48z"/>
<path d="M19386 16815 c40 -91 60 -113 83 -91 17 18 8 34 -68 116 l-51 55 36
-80z"/>
<path d="M19680 16866 c-19 -13 -50 -43 -69 -67 -33 -41 -31 -41 30 15 35 33
68 63 74 68 19 16 -1 7 -35 -16z"/>
<path d="M21618 16482 c4 -157 -5 -355 -38 -892 -21 -336 -8 -761 35 -1222 15
-158 19 -175 74 -335 185 -530 303 -774 489 -1008 62 -78 231 -255 244 -255 4
0 -13 27 -38 60 -59 77 -106 181 -139 305 -14 55 -39 144 -55 198 -16 53 -41
170 -55 260 -26 161 -58 303 -115 512 -16 61 -39 162 -51 225 l-20 115 27 21
c15 12 45 25 68 29 22 4 48 9 56 10 8 2 51 6 95 10 44 3 110 10 148 16 80 11
110 5 126 -24 6 -12 28 -78 50 -147 54 -171 107 -321 142 -405 41 -100 89
-193 89 -174 0 8 -4 19 -9 25 -40 40 -227 712 -238 852 -3 39 -9 72 -13 72 -4
0 -52 -14 -106 -31 -178 -55 -458 -119 -520 -119 -20 0 -34 5 -35 13 0 6 -2
19 -4 27 -11 48 -48 198 -69 277 -58 216 -75 454 -91 1228 -3 138 -7 261 -10
275 -3 14 -10 72 -17 130 -6 58 -14 110 -17 117 -3 7 -5 -68 -3 -165z"/>
<path d="M21431 16533 c12 -15 12 -16 -3 -11 -19 8 -33 -28 -14 -36 6 -2 2 -5
-8 -5 -11 -1 -16 -4 -13 -8 4 -3 2 -12 -4 -20 -6 -7 -9 -13 -6 -13 3 0 1 -17
-4 -37 -5 -21 -12 -47 -14 -57 -2 -10 -9 -33 -14 -50 -5 -17 -12 -53 -16 -79
-4 -27 -8 -59 -11 -70 -7 -38 -7 -103 0 -115 3 -6 2 -13 -3 -16 -8 -5 -6 -354
2 -461 4 -52 31 -56 33 -5 1 19 5 43 9 54 5 11 3 26 -4 37 -8 14 -8 19 0 19 8
0 8 5 -1 15 -11 13 -10 14 1 10 10 -4 14 4 13 28 -1 19 -5 40 -9 47 -5 9 -4
11 3 6 16 -9 15 7 0 22 -7 7 -8 12 -2 12 6 0 11 6 12 13 2 21 7 42 15 54 4 6
3 14 -2 17 -6 4 -6 18 -1 36 5 16 10 56 11 87 1 32 6 70 10 84 4 16 3 31 -4
38 -7 7 -7 14 0 23 17 22 24 50 11 42 -7 -5 -8 -3 -3 6 5 7 10 38 12 69 2 31
8 71 13 89 6 23 5 32 -3 32 -8 0 -8 3 1 9 9 5 12 25 9 64 -2 32 0 57 5 57 5 0
3 7 -6 15 -20 20 -32 19 -15 -2z"/>
<path d="M16017 16323 c-6 -9 568 -876 674 -1019 50 -68 140 -114 384 -194
105 -35 209 -71 232 -81 l42 -18 -73 -153 c-41 -84 -88 -183 -104 -220 -36
-79 -40 -80 -148 -47 -101 30 -497 157 -583 186 -52 17 -77 21 -84 14 -8 -8
-6 -11 5 -11 9 0 76 -20 150 -44 234 -77 388 -144 448 -194 l34 -29 -67 -187
c-37 -102 -67 -189 -67 -191 0 -8 55 18 71 34 9 9 42 77 73 150 31 74 71 157
88 184 l31 49 53 -7 c62 -7 49 -22 182 201 55 93 92 166 97 192 4 23 12 42 18
42 7 0 73 -21 147 -45 74 -25 138 -45 141 -45 4 0 -6 33 -22 73 -50 127 -31
217 45 217 55 0 82 -30 95 -106 23 -127 70 -220 127 -247 l32 -16 26 49 c14
26 26 60 26 75 0 20 4 25 18 21 92 -29 234 -59 312 -66 165 -15 320 -78 320
-130 0 -55 -202 -133 -457 -176 -135 -23 -171 -26 -213 -18 -37 8 -50 8 -50
-1 0 -6 31 -45 68 -86 38 -41 71 -82 75 -91 9 -25 -10 -83 -40 -118 -64 -76
-423 -335 -766 -554 -225 -143 -574 -326 -722 -379 -114 -40 -218 -60 -300
-55 -41 2 -75 2 -75 0 0 -7 77 -35 130 -48 85 -21 176 -17 286 12 55 14 103
29 109 35 5 5 15 9 23 9 19 0 325 154 402 202 36 23 79 49 95 60 224 136 506
342 706 515 88 76 126 103 146 103 36 1 131 55 187 108 25 23 48 42 53 42 11
0 56 80 49 87 -12 12 54 42 138 63 87 21 200 57 331 103 39 14 122 39 186 56
137 36 235 72 287 105 44 27 136 125 158 167 21 41 27 36 22 -16 -5 -42 -4
-44 16 -40 22 5 169 28 284 45 289 42 342 55 381 91 14 13 20 27 16 38 -3 9
-106 187 -227 396 -122 209 -257 441 -300 515 -43 74 -78 144 -78 156 0 11 -9
29 -20 39 -20 18 -20 17 -20 -11 l0 -30 -107 0 c-67 -1 -170 -11 -270 -28 -90
-14 -235 -38 -323 -51 -88 -14 -233 -37 -322 -51 -90 -14 -235 -36 -323 -50
-88 -13 -187 -29 -220 -34 -143 -22 -205 -33 -205 -37 0 -2 7 -18 16 -35 13
-25 14 -32 2 -39 -10 -7 -10 -9 0 -9 7 0 10 -5 6 -12 -5 -7 -15 -2 -30 17 -21
26 -23 27 -45 11 -24 -17 -108 -22 -167 -10 -26 5 -36 16 -54 55 l-22 49 -235
76 c-346 111 -670 214 -891 284 -107 34 -222 71 -255 81 -74 25 -150 35 -158
22z"/>
<path d="M21335 15490 c-3 -5 -1 -18 4 -27 6 -10 11 -13 11 -8 1 6 3 18 5 28
3 18 -10 23 -20 7z"/>
<path d="M21343 15418 c0 -13 1 -17 4 -10 3 6 10 9 16 5 7 -4 6 1 -2 10 -17
21 -17 21 -18 -5z"/>
<path d="M19010 14062 c-5 -9 -10 -12 -10 -7 0 9 -34 -49 -56 -95 -19 -40 -68
-90 -98 -100 -22 -7 -133 -10 -322 -9 -159 1 -305 -1 -324 -4 -19 -4 -89 -9
-155 -13 -66 -3 -129 -8 -140 -9 -11 -2 -38 -4 -60 -4 -35 -1 -66 -19 -240
-141 -175 -123 -201 -144 -207 -173 -4 -17 -10 -102 -13 -187 -8 -172 -1 -210
37 -209 l23 0 -22 11 c-30 14 -29 22 7 85 64 111 250 216 445 252 23 4 45 10
50 13 6 3 35 9 65 12 30 3 69 9 85 12 17 3 86 7 155 9 203 5 519 24 602 35
109 15 219 5 468 -45 36 -7 103 -20 150 -29 47 -9 96 -18 110 -21 78 -15 117
-19 230 -19 113 -1 153 2 230 19 185 39 406 24 575 -40 39 -14 75 -27 80 -28
15 -4 137 -47 165 -60 14 -5 31 -12 38 -14 6 -1 18 -5 25 -6 15 -5 84 -35 163
-73 43 -21 54 -29 39 -32 -10 -2 -30 -12 -44 -21 -23 -15 -167 -17 -1626 -22
-1509 -6 -1815 -11 -1815 -30 0 -18 22 -117 36 -160 14 -43 13 -53 -10 -145
-25 -100 -66 -315 -85 -454 -6 -41 -15 -107 -21 -145 -42 -304 -101 -1055
-155 -1990 -8 -143 -19 -336 -25 -430 -6 -93 -12 -210 -15 -260 -3 -49 -12
-205 -20 -345 -9 -140 -20 -329 -25 -420 -6 -91 -14 -235 -20 -320 -9 -145
-16 -236 -40 -580 -6 -74 -17 -229 -25 -345 -8 -115 -19 -268 -25 -340 -9
-117 -21 -277 -50 -685 -5 -74 -17 -232 -25 -350 -8 -118 -20 -276 -25 -350
-15 -192 -49 -679 -60 -850 -5 -80 -16 -244 -25 -365 -60 -850 -67 -976 -54
-992 17 -20 62 -42 120 -59 35 -11 49 -20 49 -33 0 -20 26 -29 245 -86 173
-45 254 -72 279 -94 16 -14 18 -26 12 -106 -3 -49 -13 -115 -21 -145 -8 -30
-15 -56 -15 -57 0 -1 29 13 64 30 l65 32 -6 90 c-5 98 15 227 41 253 8 8 48
18 94 22 95 10 118 20 126 57 3 16 35 208 71 428 36 220 79 481 95 580 16 99
79 482 139 850 61 369 164 996 230 1395 120 727 176 1065 231 1410 17 102 37
226 45 275 46 278 219 1404 360 2345 9 58 24 161 35 230 10 69 35 233 55 365
39 262 95 609 98 611 1 1 77 -1 169 -4 l166 -5 11 -76 c25 -172 102 -794 177
-1431 8 -69 30 -255 49 -415 19 -159 39 -328 44 -375 6 -47 28 -240 50 -430
48 -411 88 -769 101 -900 5 -52 16 -162 25 -245 8 -82 19 -202 25 -265 43
-491 43 -490 75 -885 32 -393 76 -956 95 -1215 15 -202 48 -628 60 -770 5 -69
17 -217 25 -330 9 -113 20 -259 25 -325 5 -66 17 -212 25 -325 8 -113 20 -257
25 -320 5 -63 13 -159 16 -212 8 -122 21 -135 157 -154 43 -6 47 -9 47 -34 0
-32 14 -40 72 -40 62 0 399 -42 449 -56 24 -7 37 -47 49 -149 14 -126 13 -135
-8 -135 -13 0 -28 -19 -47 -57 -24 -48 -29 -71 -29 -133 0 -88 1 -92 56 -232
24 -62 48 -108 56 -108 7 0 26 -7 42 -15 29 -15 29 -15 35 17 13 76 25 219 25
296 0 72 -4 93 -30 148 -25 55 -31 85 -41 201 -13 152 -9 284 9 306 7 7 36 19
66 26 30 7 70 22 88 35 l33 22 -2 210 c-1 115 -7 400 -13 634 -6 234 -15 610
-20 835 -5 226 -12 487 -15 580 -35 1116 -41 2607 -15 3725 42 1844 32 2899
-31 3228 l-11 53 -29 -41 c-16 -22 -32 -40 -34 -40 -5 0 25 58 61 117 27 44
85 196 108 281 18 68 27 88 42 90 76 12 49 27 -78 41 -54 6 -137 12 -185 12
l-88 2 110 11 c81 8 117 16 137 31 25 19 30 31 42 107 8 47 -13 261 -40 413
-5 31 -14 47 -14 26 0 -7 -4 -9 -10 -6 -6 4 -10 -5 -10 -21 0 -22 -3 -25 -22
-21 -12 4 -29 1 -37 -6 -11 -9 -15 -9 -18 0 -2 7 -11 9 -19 6 -8 -3 -14 0 -14
7 0 6 -5 8 -10 5 -6 -4 -17 -1 -25 5 -8 7 -15 9 -15 6 0 -4 -7 0 -16 8 -8 9
-22 16 -29 16 -8 0 -58 22 -112 50 -82 41 -132 64 -163 75 -3 1 -22 9 -42 18
-21 10 -43 17 -51 17 -7 0 -18 5 -25 12 -7 7 -12 9 -12 5 0 -4 -8 -3 -19 2
-10 6 -33 13 -50 16 -18 3 -51 12 -74 21 -54 19 -100 31 -187 49 -14 3 -32 8
-40 12 -35 14 -141 38 -239 53 -124 20 -374 -2 -466 -40 -11 -5 -38 -12 -60
-16 -63 -11 -66 -12 -83 -20 -22 -9 -17 -8 -86 -23 -100 -22 -180 -3 -364 86
-105 50 -156 61 -172 35z m-577 -1347 c13 -6 17 -14 12 -29 -4 -11 -20 -68
-35 -126 -16 -58 -39 -136 -50 -175 -12 -38 -25 -86 -29 -105 -14 -59 -33
-134 -39 -150 -3 -8 -7 -24 -9 -35 -2 -11 -6 -27 -9 -35 -4 -8 -8 -26 -10 -40
-2 -14 -6 -36 -10 -50 -4 -14 -6 -31 -5 -37 1 -7 -2 -13 -6 -13 -5 0 -10 -14
-11 -31 -1 -18 -6 -37 -9 -43 -4 -6 -8 -17 -9 -26 -3 -31 -15 -84 -20 -92 -3
-5 -7 -21 -10 -36 -11 -69 -36 -188 -41 -202 -3 -8 -7 -28 -9 -44 -3 -17 -8
-32 -12 -35 -4 -4 -7 -15 -6 -26 0 -11 -4 -33 -9 -50 -5 -16 -9 -39 -8 -50 0
-11 -5 -23 -12 -27 -9 -6 -9 -8 1 -8 8 0 10 -5 5 -12 -4 -7 -8 -15 -8 -18 -5
-32 -22 -109 -25 -112 -1 -2 -3 -19 -5 -38 -3 -50 -4 -52 -13 -46 -5 3 -9 -1
-9 -9 0 -8 5 -15 10 -15 5 0 4 -7 -3 -15 -7 -8 -10 -15 -7 -15 3 0 -1 -16 -9
-35 -10 -24 -11 -35 -3 -35 8 0 7 -5 -2 -16 -7 -8 -13 -30 -13 -47 -1 -20 -6
-31 -13 -30 -10 2 -10 -3 -1 -22 8 -19 8 -28 -3 -42 -12 -15 -12 -16 1 -8 13
8 13 6 1 -8 -7 -9 -18 -14 -25 -11 -6 3 -3 -1 7 -9 16 -14 16 -15 1 -21 -13
-5 -15 -9 -6 -18 15 -15 16 -32 2 -23 -5 3 -10 -3 -10 -14 0 -12 6 -21 13 -21
8 0 7 -3 -3 -9 -8 -6 -17 -8 -21 -5 -9 5 -5 -23 4 -32 4 -4 7 -14 6 -23 0 -12
-3 -11 -10 4 -7 15 -8 11 -5 -17 4 -41 -1 -53 -18 -39 -8 6 -11 0 -12 -20 -1
-16 2 -29 7 -29 10 0 6 -25 -8 -41 -6 -8 -9 -22 -8 -32 2 -9 -1 -15 -5 -12 -5
3 -11 1 -15 -5 -3 -5 1 -10 10 -10 9 0 13 -5 10 -10 -4 -6 -11 -8 -16 -5 -5 4
-10 -2 -10 -12 -1 -17 -2 -17 -6 0 -2 9 -9 17 -14 17 -5 0 -9 10 -8 23 l0 22
9 -22 c14 -35 20 -27 9 13 -8 28 -7 41 6 60 11 17 12 23 3 22 -7 -2 -17 -7
-21 -13 -5 -5 -6 4 -3 20 4 17 0 41 -8 57 -12 23 -12 26 0 21 12 -4 12 -1 0
22 -18 34 -11 61 10 44 12 -10 13 -9 8 5 -3 9 -9 16 -13 16 -4 0 -7 42 -7 93
1 50 -1 109 -5 129 -3 21 -4 40 -1 43 7 7 9 145 2 145 -7 0 -4 96 4 108 3 6 2
13 -4 17 -6 4 -7 11 -4 17 4 6 8 144 9 307 4 522 21 1007 41 1167 l5 41 122
13 c257 28 378 32 420 15z m1831 -501 c3 -8 2 -12 -4 -9 -6 3 -10 10 -10 16 0
14 7 11 14 -7z m31 -82 c-3 -3 -11 0 -18 7 -9 10 -8 11 6 5 10 -3 15 -9 12
-12z m-15 -26 c0 -3 -4 -8 -10 -11 -5 -3 -10 -1 -10 4 0 6 5 11 10 11 6 0 10
-2 10 -4z"/>
<path d="M17880 10409 c0 -12 5 -19 12 -17 18 6 20 25 3 31 -10 5 -15 0 -15
-14z"/>
<path d="M23718 13573 c-26 -7 -22 -32 8 -43 35 -14 34 -14 34 20 0 30 -6 33
-42 23z"/>
<path d="M24129 13563 c-55 -4 -57 -5 -62 -36 -2 -18 -4 -33 -2 -35 1 -1 32
-5 69 -9 l66 -6 0 37 c0 20 0 39 1 43 1 9 -4 10 -72 6z"/>
<path d="M24226 13505 c-9 -25 -9 -25 42 -24 27 1 36 4 22 6 -14 3 -32 11 -41
19 -15 13 -17 13 -23 -1z"/>
<path d="M24545 13466 l-129 -11 3 -50 c6 -98 8 -111 14 -122 4 -7 -4 -14 -22
-18 -36 -8 -37 -11 -37 -115 l1 -85 177 0 c105 0 181 4 186 10 6 6 12 51 14
102 5 92 5 92 -21 102 l-26 9 26 1 c45 2 89 13 83 22 -2 5 -22 13 -43 19 -37
10 -38 12 -52 77 -10 46 -19 68 -29 69 -8 1 -73 -4 -145 -10z m148 -193 c-7
-2 -21 -2 -30 0 -10 3 -4 5 12 5 17 0 24 -2 18 -5z"/>
<path d="M24680 12854 c-17 -10 -20 -14 -8 -14 23 0 48 11 48 21 0 12 -9 10
-40 -7z"/>
<path d="M24505 12810 c-7 -12 -8 -15 -35 -173 -12 -67 -23 -132 -26 -144 -5
-17 0 -22 26 -28 17 -4 33 -5 35 -3 1 1 6 23 9 48 7 51 13 84 20 108 3 9 8 37
11 62 4 25 10 63 15 84 5 22 7 44 4 48 -7 11 -52 10 -59 -2z"/>
<path d="M24719 12714 c-8 -9 -15 -46 -16 -83 -9 -224 -9 -218 9 -213 9 2 37
26 62 53 25 27 50 49 55 49 40 0 78 -150 51 -200 -11 -20 -17 -22 -65 -17 -29
3 -84 16 -122 30 -95 34 -121 25 -168 -54 -19 -33 -35 -62 -35 -64 0 -13 -133
-291 -151 -317 -19 -25 -26 -29 -53 -24 -29 5 -30 5 -12 -9 11 -8 24 -15 29
-15 15 0 85 -60 152 -129 65 -68 84 -77 59 -29 -22 43 -27 98 -8 105 8 3 14
11 14 18 0 16 35 56 43 48 4 -3 10 3 13 13 8 23 61 74 68 66 3 -2 8 3 12 12 3
9 10 13 15 10 5 -3 9 0 9 5 0 6 3 10 8 10 19 -3 33 2 28 10 -5 7 15 22 34 25
10 2 63 46 55 46 -4 0 4 11 19 25 15 14 32 25 38 25 6 0 8 3 5 7 -4 4 4 19 18
33 15 15 29 45 33 70 9 55 -3 203 -24 282 -43 169 -127 270 -175 212z"/>
<path d="M23127 12289 c7 -7 15 -10 18 -7 3 3 -2 9 -12 12 -14 6 -15 5 -6 -5z"/>
<path d="M23320 12190 c8 -5 20 -10 25 -10 6 0 3 5 -5 10 -8 5 -19 10 -25 10
-5 0 -3 -5 5 -10z"/>
<path d="M23367 12169 c7 -7 15 -10 18 -7 3 3 -2 9 -12 12 -14 6 -15 5 -6 -5z"/>
<path d="M23427 12139 c7 -7 15 -10 18 -7 3 3 -2 9 -12 12 -14 6 -15 5 -6 -5z"/>
<path d="M23470 12120 c8 -5 20 -10 25 -10 6 0 3 5 -5 10 -8 5 -19 10 -25 10
-5 0 -3 -5 5 -10z"/>
<path d="M17362 3125 c9 -21 8 -39 -6 -95 -17 -66 -17 -75 -2 -162 9 -51 17
-121 19 -155 1 -43 6 -64 16 -68 8 -3 15 -4 16 -3 0 2 16 41 34 88 22 59 34
110 39 170 l7 85 5 -64 5 -64 43 58 44 58 -34 26 c-18 14 -60 49 -94 77 -33
28 -70 56 -82 63 -21 11 -21 10 -10 -14z"/>
<path d="M17767 3123 c-14 -13 -7 -43 10 -43 9 0 -6 -12 -35 -26 -115 -57
-193 -197 -312 -559 -50 -150 -94 -271 -125 -340 -7 -16 -38 -88 -68 -160 -64
-151 -133 -292 -152 -311 -7 -8 -19 -27 -27 -44 -7 -16 -17 -30 -21 -30 -4 0
0 -13 9 -30 26 -44 61 -54 157 -46 207 17 332 69 472 196 116 105 288 305 195
227 -21 -19 -42 -27 -59 -25 -30 3 -27 -31 -22 348 1 102 -1 243 -6 315 -10
154 -1 302 22 362 19 50 70 97 98 89 16 -4 18 -1 12 22 -9 36 -16 42 -61 53
-47 10 -78 11 -87 2z m-255 -1266 c-2 -9 4 -20 12 -23 11 -4 13 -11 6 -23 -6
-12 -5 -22 3 -31 8 -8 8 -11 1 -7 -7 4 -14 -5 -18 -26 -14 -67 -82 -111 -106
-68 -25 47 -7 126 39 172 30 30 68 33 63 6z"/>
<path d="M16852 2950 c0 -14 2 -19 5 -12 2 6 2 18 0 25 -3 6 -5 1 -5 -13z"/>
<path d="M16864 2813 c1 -84 4 -113 13 -113 16 0 16 51 -1 150 l-13 75 1 -112z"/>
<path d="M21560 2699 c0 -6 -7 -9 -15 -6 -8 4 -17 2 -20 -4 -4 -5 -10 -7 -15
-4 -5 3 -21 3 -35 -1 -24 -6 -25 -9 -25 -88 1 -80 1 -81 17 -51 9 17 25 41 36
55 l19 25 -5 -35 c-2 -19 -16 -79 -31 -134 -34 -127 -34 -210 0 -346 14 -58
27 -129 29 -159 3 -47 16 -163 30 -264 4 -30 -24 -117 -37 -117 -4 0 -8 -7 -8
-15 0 -8 -27 -42 -60 -76 -33 -34 -60 -65 -60 -71 0 -5 12 -20 26 -33 26 -24
32 -25 158 -24 72 1 123 3 114 6 -9 2 -24 24 -34 49 -15 38 -15 52 -4 102 16
74 15 90 -15 203 -14 52 -37 148 -51 214 -14 66 -34 152 -45 190 -11 39 -20
102 -20 140 0 71 52 359 72 396 11 21 4 59 -12 59 -5 0 -9 -5 -9 -11z"/>
<path d="M20721 2583 c21 -43 50 -118 64 -168 14 -49 23 -72 21 -50 -6 44 -53
276 -58 280 -2 1 -17 6 -35 9 l-31 7 39 -78z"/>
<path d="M16821 2563 c-15 -33 -14 -34 13 -21 32 14 40 35 16 41 -12 3 -21 -3
-29 -20z"/>
<path d="M16731 2396 c-24 -42 -41 -80 -37 -84 9 -8 26 18 26 40 0 18 45 58
66 58 8 0 14 5 14 10 0 6 -4 10 -9 10 -5 0 -11 10 -13 21 -2 17 -14 3 -47 -55z"/>
<path d="M20812 2195 c0 -16 2 -22 5 -12 2 9 2 23 0 30 -3 6 -5 -1 -5 -18z"/>
<path d="M21360 2212 c0 -10 41 -35 47 -28 9 8 -17 36 -33 36 -8 0 -14 -3 -14
-8z"/>
<path d="M20801 2087 c-1 -40 1 -46 13 -35 8 7 10 18 6 23 -4 6 -10 21 -13 35
-2 14 -5 5 -6 -23z"/>
<path d="M21405 2070 c3 -5 11 -10 16 -10 6 0 7 5 4 10 -3 6 -11 10 -16 10 -6
0 -7 -4 -4 -10z"/>
</g>
</svg>
